<svg width="28.000000" height="28.000000" viewBox="0 0 28 28" fill="none" xmlns="http://www.w3.org/2000/svg" xmlns:xlink="http://www.w3.org/1999/xlink">
	<desc>
			Created with Pixso.
	</desc>
	<defs/>
	<rect id="BG" y="-0.640625" rx="4.000000" width="28.000000" height="28.000000" fill="#000000" fill-opacity="1.000000"/>
	<path id="Vector" d="M6.14 8.59C5.89 8.28 5.58 8.01 5.24 7.8C5.02 7.69 4.93 7.43 5.04 7.21C5.15 6.99 5.42 6.9 5.63 7.01C6.09 7.26 6.48 7.61 6.8 8.02C7.26 8.55 7.63 8.97 8.38 8.97C9.12 8.97 9.45 8.61 9.96 8.02C10.46 7.43 11.03 6.77 12.19 6.77C13.36 6.77 13.97 7.5 14.43 8.02C14.89 8.55 15.27 8.97 16.01 8.97C16.76 8.97 17.09 8.61 17.59 8.02C18.1 7.43 18.69 6.77 19.83 6.77C20.97 6.77 21.59 7.45 22.07 8C22.27 8.27 22.51 8.51 22.79 8.7C23 8.84 23.06 9.11 22.92 9.32C22.79 9.52 22.52 9.58 22.31 9.45C21.97 9.21 21.67 8.92 21.41 8.59C20.95 8.07 20.58 7.65 19.83 7.65C19.08 7.65 18.75 8 18.25 8.59C17.75 9.18 17.18 9.84 16.01 9.84C14.85 9.84 14.24 9.12 13.77 8.59C13.31 8.07 12.94 7.65 12.19 7.65C11.45 7.65 11.12 8 10.61 8.59C10.11 9.18 9.52 9.84 8.38 9.84C7.24 9.84 6.64 9.18 6.14 8.59ZM22.79 11.99C22.51 11.8 22.27 11.56 22.07 11.29C21.59 10.74 20.97 10.06 19.83 10.06C18.69 10.06 18.1 10.72 17.59 11.31C17.09 11.91 16.76 12.26 16.01 12.26C15.27 12.26 14.89 11.84 14.43 11.31C13.97 10.79 13.36 10.06 12.19 10.06C11.03 10.06 10.46 10.72 9.96 11.31C9.45 11.91 9.12 12.26 8.38 12.26C7.63 12.26 7.26 11.84 6.8 11.31C6.48 10.9 6.09 10.56 5.63 10.3C5.42 10.19 5.15 10.28 5.04 10.5C4.93 10.72 5.02 10.98 5.24 11.09C5.58 11.3 5.89 11.57 6.14 11.88C6.64 12.48 7.24 13.13 8.38 13.13C9.52 13.13 10.11 12.48 10.61 11.88C11.12 11.29 11.45 10.94 12.19 10.94C12.94 10.94 13.31 11.36 13.77 11.88C14.23 12.41 14.85 13.13 16.01 13.13C17.18 13.13 17.75 12.48 18.25 11.88C18.75 11.29 19.08 10.94 19.83 10.94C20.58 10.94 20.95 11.36 21.41 11.88C21.67 12.21 21.97 12.5 22.31 12.74C22.52 12.87 22.79 12.81 22.92 12.61C23.06 12.4 23 12.13 22.79 11.99ZM22.07 14.8C22.27 15.07 22.51 15.31 22.79 15.5C23 15.64 23.06 15.91 22.92 16.12C22.79 16.32 22.52 16.38 22.31 16.25C21.97 16.01 21.67 15.72 21.41 15.39C20.95 14.87 20.58 14.45 19.83 14.45C19.08 14.45 18.75 14.8 18.25 15.39C17.75 15.99 17.18 16.64 16.01 16.64C14.85 16.64 14.23 15.92 13.77 15.39C13.31 14.87 12.94 14.45 12.19 14.45C11.45 14.45 11.12 14.8 10.61 15.39C10.11 15.99 9.52 16.64 8.38 16.64C7.24 16.64 6.64 15.99 6.14 15.39C5.89 15.08 5.58 14.81 5.24 14.6C5.02 14.5 4.93 14.23 5.04 14.01C5.15 13.79 5.42 13.71 5.63 13.81C6.09 14.07 6.48 14.41 6.8 14.82C7.26 15.35 7.63 15.77 8.38 15.77C9.12 15.77 9.45 15.42 9.96 14.82C10.46 14.23 11.03 13.57 12.19 13.57C13.36 13.57 13.97 14.3 14.43 14.82C14.89 15.35 15.27 15.77 16.01 15.77C16.76 15.77 17.09 15.42 17.59 14.82C18.1 14.23 18.69 13.57 19.83 13.57C20.97 13.57 21.59 14.25 22.07 14.8ZM22.07 18.09C22.27 18.37 22.51 18.6 22.79 18.79C23 18.93 23.06 19.2 22.92 19.41C22.79 19.62 22.52 19.67 22.31 19.54C21.97 19.3 21.67 19.01 21.41 18.69C20.95 18.16 20.58 17.74 19.83 17.74C19.08 17.74 18.75 18.09 18.25 18.69C17.75 19.28 17.18 19.94 16.01 19.94C14.85 19.94 14.23 19.21 13.77 18.69C13.31 18.16 12.94 17.74 12.19 17.74C11.45 17.74 11.12 18.09 10.61 18.69C10.11 19.28 9.52 19.94 8.38 19.94C7.24 19.94 6.64 19.28 6.14 18.69C5.89 18.37 5.58 18.1 5.24 17.9C5.02 17.79 4.93 17.52 5.04 17.3C5.15 17.08 5.42 17 5.63 17.11C6.09 17.36 6.48 17.7 6.8 18.12C7.26 18.64 7.63 19.06 8.38 19.06C9.12 19.06 9.45 18.71 9.96 18.12C10.46 17.52 11.03 16.86 12.19 16.86C13.36 16.86 13.97 17.59 14.43 18.12C14.89 18.64 15.27 19.06 16.01 19.06C16.76 19.06 17.09 18.71 17.59 18.12C18.1 17.52 18.69 16.86 19.83 16.86C20.97 16.86 21.59 17.54 22.07 18.09Z" fill="#FFEBB9" fill-opacity="1.000000" fill-rule="evenodd"/>
</svg>
