<svg width="28.000000" height="28.000000" viewBox="0 0 28 28" fill="none" xmlns="http://www.w3.org/2000/svg" xmlns:xlink="http://www.w3.org/1999/xlink">
	<desc>
			Created with Pixso.
	</desc>
	<defs/>
	<rect id="BG" y="-0.640625" rx="4.000000" width="28.000000" height="28.000000" fill="#000000" fill-opacity="1.000000"/>
	<path id="Vector" d="M14.76 8.78L14.76 9.8L18.01 13.13C19.75 14.9 20.7 17.21 20.7 19.63L20.7 22.35L13.42 22.35C13.53 21.94 13.91 21.64 14.38 21.64L15.05 21.64L15.05 19.9C15.05 18.65 16.12 17.64 17.43 17.64L17.52 17.64L17.52 16.53L17.43 16.53C15.47 16.53 13.88 18.04 13.88 19.9L13.88 20.58C13.01 20.78 12.34 21.49 12.24 22.35L8.76 22.35L8.77 22.19C8.77 21.23 9.48 20.42 10.42 20.21L10.42 16.31L9.52 13.74C9.35 13.26 9.27 12.76 9.27 12.25L9.27 11.24L8.05 11.24C7.49 11.24 6.97 11.03 6.58 10.65C6.18 10.28 5.97 9.78 5.97 9.25L5.98 8.55L7.57 7.54C7.68 6.85 8.08 6.21 8.68 5.8L8.77 5.74L8.72 3.54L9.09 3.4C9.44 3.26 9.67 3.47 9.8 3.58L9.8 3.58C9.86 3.63 9.94 3.71 10.04 3.79C10.2 3.95 10.44 4.16 10.73 4.43C11.07 4.74 11.41 5.05 11.59 5.22C12.43 5.33 13.2 5.73 13.79 6.36C14.42 7.03 14.76 7.89 14.76 8.78ZM22.87 18.14L22.87 17.16L24.04 17.16L24.04 19.73C24.04 20.99 23.09 22.05 21.84 22.3L21.84 19.63C21.84 19.61 21.84 19.58 21.83 19.56C22.44 19.34 22.87 18.79 22.87 18.14Z" fill="#FFEBB9" fill-opacity="1.000000" fill-rule="evenodd"/>
</svg>
