<svg width="28.000000" height="28.000000" viewBox="0 0 28 28" fill="none" xmlns="http://www.w3.org/2000/svg" xmlns:xlink="http://www.w3.org/1999/xlink">
	<desc>
			Created with Pixso.
	</desc>
	<defs/>
	<rect id="BG" y="-0.640625" rx="4.000000" width="28.000000" height="28.000000" fill="#000000" fill-opacity="1.000000"/>
	<path id="Vector" d="M11.54 5.35L17.45 5.35C17.7 5.35 17.89 5.55 17.89 5.79L17.89 20.35L16.69 20.35L16.69 17.51C16.69 17.27 16.5 17.07 16.25 17.07L12.74 17.07C12.49 17.07 12.3 17.27 12.3 17.51L12.3 20.35L11.1 20.35L11.1 5.79C11.1 5.55 11.29 5.35 11.54 5.35ZM12.74 8.28C12.98 8.28 13.18 8.09 13.18 7.84L13.18 6.97C13.18 6.72 12.98 6.53 12.74 6.53C12.49 6.53 12.3 6.72 12.3 6.97L12.3 7.84C12.3 8.09 12.49 8.28 12.74 8.28ZM14.5 8.28C14.74 8.28 14.93 8.09 14.93 7.84L14.93 6.97C14.93 6.72 14.74 6.53 14.5 6.53C14.25 6.53 14.06 6.72 14.06 6.97L14.06 7.84C14.06 8.09 14.25 8.28 14.5 8.28ZM16.25 8.28C16.5 8.28 16.69 8.09 16.69 7.84L16.69 6.97C16.69 6.72 16.5 6.53 16.25 6.53C16.01 6.53 15.81 6.72 15.81 6.97L15.81 7.84C15.81 8.09 16.01 8.28 16.25 8.28ZM12.74 10.92C12.98 10.92 13.18 10.72 13.18 10.48L13.18 9.6C13.18 9.36 12.98 9.16 12.74 9.16C12.49 9.16 12.3 9.36 12.3 9.6L12.3 10.48C12.3 10.72 12.49 10.92 12.74 10.92ZM14.5 10.92C14.74 10.92 14.93 10.72 14.93 10.48L14.93 9.6C14.93 9.36 14.74 9.16 14.5 9.16C14.25 9.16 14.06 9.36 14.06 9.6L14.06 10.48C14.06 10.72 14.25 10.92 14.5 10.92ZM16.25 10.92C16.5 10.92 16.69 10.72 16.69 10.48L16.69 9.6C16.69 9.36 16.5 9.16 16.25 9.16C16.01 9.16 15.81 9.36 15.81 9.6L15.81 10.48C15.81 10.72 16.01 10.92 16.25 10.92ZM7 11.65C7 11.41 7.19 11.21 7.43 11.21L10.22 11.21L10.22 20.35L7.43 20.35C7.19 20.35 7 20.16 7 19.91L7 11.65ZM21.56 11.21L18.77 11.21L18.77 20.35L21.56 20.35C21.8 20.35 22 20.16 22 19.91L22 11.65C22 11.41 21.8 11.21 21.56 11.21ZM12.74 13.56C12.98 13.56 13.18 13.36 13.18 13.12L13.18 12.24C13.18 12 12.98 11.8 12.74 11.8C12.49 11.8 12.3 12 12.3 12.24L12.3 13.12C12.3 13.36 12.49 13.56 12.74 13.56ZM14.5 13.56C14.74 13.56 14.93 13.36 14.93 13.12L14.93 12.24C14.93 12 14.74 11.8 14.5 11.8C14.25 11.8 14.06 12 14.06 12.24L14.06 13.12C14.06 13.36 14.25 13.56 14.5 13.56ZM16.25 13.56C16.5 13.56 16.69 13.36 16.69 13.12L16.69 12.24C16.69 12 16.5 11.8 16.25 11.8C16.01 11.8 15.81 12 15.81 12.24L15.81 13.12C15.81 13.36 16.01 13.56 16.25 13.56ZM8.61 14.73C8.85 14.73 9.05 14.53 9.05 14.29L9.05 13.41C9.05 13.17 8.85 12.97 8.61 12.97C8.36 12.97 8.17 13.17 8.17 13.41L8.17 14.29C8.17 14.53 8.36 14.73 8.61 14.73ZM20.82 14.29C20.82 14.53 20.63 14.73 20.38 14.73C20.14 14.73 19.94 14.53 19.94 14.29L19.94 13.41C19.94 13.17 20.14 12.97 20.38 12.97C20.63 12.97 20.82 13.17 20.82 13.41L20.82 14.29ZM12.74 16.19C12.98 16.19 13.18 16 13.18 15.75L13.18 14.88C13.18 14.63 12.98 14.44 12.74 14.44C12.49 14.44 12.3 14.63 12.3 14.88L12.3 15.75C12.3 16 12.49 16.19 12.74 16.19ZM14.5 16.19C14.74 16.19 14.93 16 14.93 15.75L14.93 14.88C14.93 14.63 14.74 14.44 14.5 14.44C14.25 14.44 14.06 14.63 14.06 14.88L14.06 15.75C14.06 16 14.25 16.19 14.5 16.19ZM16.25 16.19C16.5 16.19 16.69 16 16.69 15.75L16.69 14.88C16.69 14.63 16.5 14.44 16.25 14.44C16.01 14.44 15.81 14.63 15.81 14.88L15.81 15.75C15.81 16 16.01 16.19 16.25 16.19ZM8.61 17.37C8.85 17.37 9.05 17.17 9.05 16.93L9.05 16.05C9.05 15.8 8.85 15.61 8.61 15.61C8.36 15.61 8.17 15.8 8.17 16.05L8.17 16.93C8.17 17.17 8.36 17.37 8.61 17.37ZM20.82 16.93C20.82 17.17 20.63 17.37 20.38 17.37C20.14 17.37 19.94 17.17 19.94 16.93L19.94 16.05C19.94 15.8 20.14 15.61 20.38 15.61C20.63 15.61 20.82 15.8 20.82 16.05L20.82 16.93ZM13.18 17.95L14.06 17.95L14.06 20.35L13.18 20.35L13.18 17.95ZM14.93 17.95L15.81 17.95L15.81 20.35L14.93 20.35L14.93 17.95Z" fill="#FFEBB9" fill-opacity="1.000000" fill-rule="evenodd"/>
</svg>
