<svg width="28.000000" height="28.000000" viewBox="0 0 28 28" fill="none" xmlns="http://www.w3.org/2000/svg" xmlns:xlink="http://www.w3.org/1999/xlink">
	<desc>
			Created with Pixso.
	</desc>
	<defs/>
	<rect id="BG" y="-0.640625" rx="4.000000" width="28.000000" height="28.000000" fill="#000000" fill-opacity="1.000000"/>
	<path id="Vector" d="M19.47 10.8C17.23 9.08 15.8 11.79 16.69 11.52C17.32 11.33 18.01 11.29 18.7 11.43C17.53 11.43 16.45 11.94 15.73 12.77C15.79 11.47 15.88 10.66 15.98 10.05C16.58 10.04 17.38 9.58 17.82 8.78C18.48 7.67 18.29 6.53 18.16 5.71C18.14 5.59 18.12 5.48 18.11 5.37C17.9 5.57 17.43 5.61 16.87 5.66C15.87 5.75 14.58 5.87 13.92 6.93C13.47 7.66 13.6 8.55 14.08 9.2C14.23 9.41 14.59 9.31 14.6 9.06C14.64 7.97 15.21 7.15 16.28 6.7C15.8 7.28 15.49 7.94 15.32 8.62C15.07 9.67 14.81 10.37 14.71 13.73C14.7 14.07 14.99 14.36 15.36 14.35C15.62 14.35 15.84 14.19 15.94 13.96C16.1 13.62 16.35 13.26 16.75 12.93C17.14 13.33 17.72 13.54 18.33 13.44C19.45 13.28 19.97 11.86 20.41 11.43C20.41 11.43 20.15 11.32 19.47 10.8ZM13.88 11.6C14.05 11.66 14.21 11.5 14.16 11.34C13.77 10.22 12.38 9.8 11.08 10.8C10.4 11.32 10.14 11.43 10.13 11.43C10.58 11.86 11.1 13.28 12.22 13.44C13.45 13.65 14.55 12.51 13.65 11.98C13.06 11.63 12.37 11.43 11.63 11.43C12.41 11.27 13.19 11.34 13.88 11.6ZM20.95 15.05C21.3 14.86 22.06 14.54 22.76 14.99C23.06 15.18 23.07 15.6 22.8 15.82L17.96 19.89C17.48 20.29 16.85 20.52 16.21 20.52L10.13 20.52L8.85 22.34L5 18.7L8.45 15.48C9.11 14.85 10.06 14.45 11.12 14.45C11.75 14.45 12.34 14.59 12.86 14.84C13.32 15.07 13.95 15.06 14.54 15.06C14.63 15.06 14.73 15.05 14.82 15.05L15.71 15.05C16.42 15.05 17.21 15.44 17.21 16.27C17.21 17.05 16.42 17.48 15.71 17.48L13.35 17.48L13.99 18.09L16.56 18.09L20.95 15.05Z" fill="#FFEBB9" fill-opacity="1.000000" fill-rule="evenodd"/>
</svg>
