<svg width="24.000000" height="24.000000" viewBox="0 0 24 24" fill="none" xmlns="http://www.w3.org/2000/svg" xmlns:xlink="http://www.w3.org/1999/xlink">
	<desc>
			Created with Pixso.
	</desc>
	<defs>
		<filter id="filter_1_916_dd" x="0.000000" y="-0.500000" width="24.000000" height="24.000000" filterUnits="userSpaceOnUse" color-interpolation-filters="sRGB">
			<feFlood flood-opacity="0" result="BackgroundImageFix"/>
			<feGaussianBlur in="BackgroundImage" stdDeviation="26.6667"/>
			<feComposite in2="SourceAlpha" operator="in" result="effect_backgroundBlur_1"/>
			<feBlend mode="normal" in="SourceGraphic" in2="effect_backgroundBlur_1" result="shape"/>
		</filter>
	</defs>
	<g filter="url(#filter_1_916_dd)">
		<path id="Vector" d="M0 11.5C0 4.87 5.37 -0.5 12 -0.5C18.62 -0.5 24 4.87 24 11.5C24 18.12 18.62 23.5 12 23.5C5.37 23.5 0 18.12 0 11.5Z" fill="#FFFFFF" fill-opacity="1.000000" fill-rule="evenodd"/>
	</g>
	<path id="Vector" d="M8.99 13.21L8.99 9.67C8.99 8.17 8.99 7.41 9.48 7.12C9.97 6.83 10.63 7.2 11.95 7.92L14.98 9.58C16.32 10.32 16.99 10.69 17 11.26C17.02 11.84 16.37 12.24 15.07 13.04L12.04 14.91C10.69 15.75 10.01 16.16 9.5 15.88C8.99 15.59 8.99 14.8 8.99 13.21Z" fill="#1D2130" fill-opacity="1.000000" fill-rule="evenodd"/>
</svg>
