<svg width="376.000000" height="375.000000" viewBox="0 0 376 375" fill="none" xmlns="http://www.w3.org/2000/svg" xmlns:xlink="http://www.w3.org/1999/xlink">
	<desc>
			Created with Pixso.
	</desc>
	<defs/>
	<path id="Ellipse" d="M187.5 -0.38C230.77 -0.38 270.65 14.32 302.4 39C336.61 65.5 359.11 101.56 369.07 140.52C379.87 182.42 375.54 224.7 359.53 261.59C342.38 301.32 313.04 332.07 277.8 351.44L234.94 273.44C254.86 262.49 269.5 245.63 277.87 226.24C286.92 205.39 288.15 183.09 282.88 162.64C277.25 140.61 264.56 122.24 247.86 109.31C229.91 95.36 208.62 88.62 187.5 88.62L187.5 -0.38Z" fill="#BEF3C0" fill-opacity="1.000000" fill-rule="evenodd"/>
	<path id="Ellipse" d="M277.82 351.43C244.06 369.99 207.05 377.04 171.31 373.9C132.93 370.6 98.24 355.89 70.27 333.43C40.19 309.36 19.52 277.86 8.74 243.65C-2.89 206.92 -2.59 169.25 7.44 134.8L92.91 159.64C87.26 179.07 87.89 198.85 93.59 216.81C99.68 236.11 111.19 252.21 125.91 263.98C141.7 276.64 160.22 283.64 178.99 285.24C199.15 287 218.43 282.53 234.94 273.44L277.82 351.43Z" fill="#AC94F1" fill-opacity="1.000000" fill-rule="evenodd"/>
	<path id="Ellipse" d="M7.33 135.18C17.65 99.38 37.75 69.02 63.87 46.15L122.55 113.06C107.84 125.97 97.89 142.3 92.85 159.83L7.33 135.18Z" fill="#FFF0CA" fill-opacity="1.000000" fill-rule="evenodd"/>
	<path id="Ellipse" d="M62.91 47C89.64 23.23 121.32 8.51 154.17 2.61L169.99 90.19C151.49 93.53 135.14 101.85 122.05 113.51L62.91 47Z" fill="#F9CF64" fill-opacity="1.000000" fill-rule="evenodd"/>
	<path id="Ellipse" d="M153.25 2.77C166.2 0.37 179.08 -0.64 191.75 -0.33L189.73 88.65C182.82 88.49 176.05 89.05 169.51 90.28L153.25 2.77Z" fill="#F38FBF" fill-opacity="1.000000" fill-rule="evenodd"/>
</svg>
