<svg width="126.000000" height="29.000000" viewBox="0 0 126 29" fill="none" xmlns="http://www.w3.org/2000/svg" xmlns:xlink="http://www.w3.org/1999/xlink">
	<desc>
			Created with Pixso.
	</desc>
	<defs/>
	<g opacity="0.600000">
		<path id="Logo" d="M25.1 4.83C25.96 5.85 26.67 6.99 27.21 8.21C27.99 9.99 28.39 11.91 28.39 13.86C28.38 17.62 26.88 21.24 24.2 23.91C21.53 26.57 17.9 28.08 14.11 28.08C12.28 28.08 10.46 27.73 8.76 27.03C7.55 26.55 6.41 25.91 5.39 25.11C3.78 23.9 2.46 22.36 1.49 20.59C0.53 18.83 -0.04 16.88 -0.2 14.88C-0.35 12.88 -0.07 10.87 0.61 8.99C1.3 7.1 2.38 5.38 3.78 3.94C5.18 2.5 6.87 1.37 8.74 0.62C10.61 -0.12 12.62 -0.46 14.64 -0.38C16.65 -0.3 18.62 0.21 20.43 1.11C22.23 2 23.82 3.27 25.1 4.83ZM18.87 3.56C17.38 2.86 15.75 2.51 14.1 2.51L14.11 2.48C12.19 2.48 10.3 2.97 8.61 3.89C6.93 4.81 5.51 6.14 4.48 7.76C3.45 9.37 2.85 11.22 2.73 13.13C2.61 15.04 2.98 16.95 3.8 18.68C4.28 18.18 4.57 17.53 4.64 16.85C4.82 15.56 5.42 14.37 6.35 13.46C7.27 12.54 8.46 11.94 9.75 11.76C10.48 11.69 11.16 11.38 11.68 10.87C12.2 10.36 12.53 9.69 12.61 8.97C12.8 7.69 13.4 6.5 14.32 5.58C15.24 4.66 16.44 4.07 17.73 3.88C18.12 3.82 18.51 3.71 18.87 3.56ZM5.76 20.86C5.63 20.99 5.5 21.09 5.38 21.21C6.19 22.16 7.16 22.97 8.25 23.61C8.53 23.18 8.71 22.69 8.76 22.17C8.96 20.88 9.56 19.69 10.49 18.78C11.42 17.86 12.62 17.26 13.91 17.08C14.64 17.01 15.32 16.69 15.83 16.18C16.35 15.66 16.68 14.99 16.75 14.27C16.93 12.98 17.53 11.79 18.45 10.87C19.38 9.95 20.57 9.36 21.87 9.17C22.59 9.1 23.27 8.78 23.78 8.25C23.83 8.2 23.87 8.16 23.91 8.1C23.26 6.99 22.42 6 21.42 5.18C20.55 6 19.44 6.52 18.26 6.68C17.53 6.73 16.84 7.04 16.33 7.56C15.78 8.09 15.46 8.8 15.41 9.56C15.22 10.85 14.62 12.04 13.7 12.95C12.78 13.87 11.58 14.47 10.29 14.65C9.57 14.71 8.89 15.03 8.38 15.56C7.86 16.07 7.53 16.74 7.46 17.47C7.3 18.76 6.69 19.95 5.76 20.86ZM73.84 7.52C73.67 7.79 73.58 8.1 73.59 8.42L73.59 8.44C73.59 8.65 73.63 8.86 73.71 9.05C73.8 9.25 73.92 9.42 74.07 9.57C74.23 9.71 74.41 9.82 74.61 9.9C74.81 9.97 75.02 10 75.23 9.98C75.55 9.98 75.86 9.87 76.13 9.69C76.39 9.51 76.59 9.25 76.71 8.96C76.82 8.66 76.85 8.34 76.78 8.03C76.71 7.72 76.55 7.43 76.32 7.21C76.09 6.99 75.79 6.85 75.48 6.79C75.16 6.74 74.84 6.78 74.55 6.91C74.26 7.04 74.01 7.25 73.84 7.52ZM39.22 7.63L36.06 7.63L36.06 20.37L39.22 20.37L39.22 7.63ZM97.97 13.73C97.9 11.75 96.31 10.51 93.68 10.51L93.68 10.53C91.06 10.53 89.36 11.76 89.34 13.65C89.34 15.12 90.33 16.11 92.22 16.5L94.05 16.89C94.81 17.05 95.1 17.15 95.1 17.66C95.1 18.16 94.68 18.47 93.75 18.47C92.82 18.47 92.25 18.05 92.16 17.33L89.11 17.33C89.25 19.29 91.01 20.58 93.7 20.58C96.39 20.58 98.22 19.29 98.22 17.3C98.22 15.84 97.39 15.06 95.46 14.65L93.44 14.24C92.73 14.1 92.38 13.94 92.38 13.45C92.38 12.95 92.77 12.62 93.65 12.62C94.52 12.62 95.09 13.05 95.09 13.73L97.97 13.73ZM67.44 10.52C64.44 10.52 62.5 12.4 62.5 15.55L62.5 15.56C62.5 18.76 64.39 20.59 67.44 20.59C70.49 20.59 72.39 18.7 72.39 15.55C72.39 12.4 70.43 10.52 67.44 10.52ZM113.37 10.71L110.31 10.71L110.25 20.37L113.42 20.37L113.42 14.69C113.4 14.49 113.41 14.29 113.47 14.1C113.53 13.91 113.63 13.73 113.77 13.58C113.9 13.44 114.06 13.32 114.24 13.23C114.43 13.15 114.62 13.11 114.82 13.11C115.69 13.11 116.16 13.64 116.16 14.6L116.16 20.37L119.17 20.37L119.17 14.66C119.14 14.47 119.16 14.27 119.22 14.08C119.28 13.9 119.37 13.72 119.51 13.57C119.64 13.43 119.8 13.31 119.98 13.23C120.16 13.15 120.35 13.11 120.55 13.11C121.44 13.11 121.91 13.59 121.91 14.64L121.91 20.37L125.08 20.37L125.08 13.8C125.11 13.38 125.05 12.95 124.9 12.54C124.76 12.14 124.53 11.77 124.23 11.46C123.93 11.15 123.57 10.91 123.17 10.75C122.77 10.59 122.34 10.51 121.91 10.53C121.25 10.5 120.6 10.69 120.06 11.07C119.53 11.45 119.13 12 118.94 12.63L118.87 12.63C118.77 12 118.44 11.44 117.94 11.05C117.44 10.66 116.82 10.48 116.18 10.53C115.56 10.52 114.96 10.71 114.46 11.08C113.96 11.45 113.6 11.97 113.43 12.56L113.37 12.56L113.37 10.71ZM45.42 10.53C42.42 10.53 40.48 12.41 40.48 15.56C40.48 18.76 42.38 20.6 45.42 20.6C48.46 20.6 50.36 18.71 50.36 15.56C50.36 12.41 48.41 10.53 45.42 10.53ZM84.44 20.49C86.84 20.49 88.24 18.7 88.24 15.55L88.29 15.57C88.29 12.42 86.84 10.61 84.41 10.57C83.79 10.54 83.18 10.71 82.65 11.04C82.13 11.37 81.72 11.86 81.48 12.43L81.42 12.43L81.42 10.71L78.25 10.71L78.25 23.45L81.42 23.45L81.42 18.71L81.48 18.71C81.73 19.27 82.15 19.74 82.68 20.06C83.2 20.38 83.82 20.53 84.44 20.49ZM54.59 20.99L51.55 20.99L51.55 21C51.73 22.74 53.47 23.99 56.26 23.99C59.27 23.99 61.31 22.56 61.31 20.26L61.31 10.71L58.14 10.71L58.14 12.46C57.9 11.89 57.5 11.41 56.98 11.08C56.46 10.75 55.85 10.59 55.23 10.61C52.8 10.61 51.35 12.51 51.35 15.53C51.35 18.54 52.88 20.29 55.19 20.29C55.79 20.33 56.38 20.18 56.89 19.87C57.41 19.56 57.82 19.11 58.07 18.57L58.13 18.57L58.13 20.33C58.13 21.28 57.5 21.93 56.3 21.93C55.95 21.98 55.59 21.91 55.28 21.74C54.98 21.57 54.73 21.31 54.59 20.99ZM105.73 20.34L108.78 20.34L108.82 10.71L105.65 10.71L105.65 16.15C105.68 16.37 105.67 16.6 105.6 16.82C105.53 17.04 105.42 17.24 105.27 17.41C105.11 17.59 104.93 17.73 104.72 17.82C104.51 17.91 104.28 17.96 104.05 17.96C103.07 17.96 102.48 17.35 102.48 16.21L102.48 10.71L99.31 10.71L99.31 16.93C99.27 17.41 99.34 17.89 99.5 18.34C99.66 18.79 99.92 19.2 100.26 19.55C100.59 19.89 101 20.16 101.45 20.33C101.9 20.51 102.38 20.58 102.86 20.55C103.49 20.59 104.11 20.41 104.62 20.04C105.13 19.68 105.5 19.15 105.66 18.55L105.73 18.55L105.73 20.34ZM76.75 10.73L73.59 10.73L73.59 20.37L76.75 20.37L76.75 10.73ZM10.94 24.82C11.97 25.11 13.03 25.26 14.1 25.26L14.1 25.21C15.85 25.2 17.56 24.8 19.13 24.03C20.69 23.25 22.05 22.14 23.11 20.76C24.18 19.38 24.91 17.79 25.25 16.08C25.59 14.38 25.54 12.62 25.1 10.95C24.29 11.51 23.37 11.87 22.39 12C21.67 12.07 20.99 12.39 20.48 12.9C19.96 13.42 19.64 14.09 19.57 14.81C19.38 16.1 18.78 17.29 17.85 18.21C16.93 19.12 15.73 19.72 14.44 19.9C13.71 19.98 13.04 20.3 12.52 20.81C12.01 21.32 11.69 22 11.61 22.72C11.52 23.45 11.29 24.16 10.94 24.82ZM67.44 12.8C68.51 12.8 69.2 13.81 69.2 15.55L69.2 15.57C69.2 17.32 68.56 18.3 67.48 18.3C66.4 18.3 65.74 17.28 65.74 15.57C65.74 13.86 66.36 12.8 67.44 12.8ZM45.42 12.81C46.49 12.81 47.18 13.82 47.18 15.56L47.18 15.57C47.18 17.32 46.5 18.29 45.42 18.29C44.33 18.29 43.67 17.26 43.67 15.56C43.67 13.86 44.34 12.81 45.42 12.81ZM83.26 13.04C84.37 13.04 85.08 14.01 85.08 15.55L85.08 15.57C85.08 17.09 84.37 18.05 83.26 18.05C82.16 18.05 81.43 17.07 81.44 15.55C81.45 14.02 82.16 13.04 83.26 13.04ZM56.32 13.05C57.43 13.05 58.14 14.01 58.14 15.55L58.14 15.56C58.14 17.11 57.45 17.96 56.32 17.96C55.19 17.96 54.51 17.09 54.51 15.55C54.51 14 55.2 13.05 56.32 13.05Z" fill="#1D2130" fill-opacity="1.000000" fill-rule="evenodd"/>
	</g>
</svg>
