<svg width="133.000000" height="31.000000" viewBox="0 0 133 31" fill="none" xmlns="http://www.w3.org/2000/svg" xmlns:xlink="http://www.w3.org/1999/xlink">
	<desc>
			Created with Pixso.
	</desc>
	<defs/>
	<g opacity="0.600000">
		<path id="Logo" d="M28.63 3.85C29.82 5.58 30.45 7.62 30.45 9.71C30.45 11.17 30.14 12.61 29.54 13.94C28.95 15.27 28.07 16.46 26.98 17.43L26.98 30.35L-0.82 30.35L-0.82 2.7L12.35 2.7C13.77 1.16 15.62 0.08 17.67 -0.39C19.71 -0.87 21.85 -0.72 23.81 0.04C25.77 0.8 27.45 2.13 28.63 3.85ZM24.25 12.53C24.81 11.69 25.11 10.71 25.1 9.71C25.1 8.37 24.56 7.08 23.61 6.14C22.66 5.19 21.36 4.66 20.02 4.66C19.01 4.66 18.03 4.96 17.19 5.51C16.35 6.07 15.7 6.86 15.32 7.79C14.93 8.71 14.83 9.73 15.03 10.71C15.23 11.69 15.71 12.6 16.43 13.3C17.14 14.01 18.04 14.49 19.03 14.69C20.02 14.88 21.04 14.78 21.97 14.39C22.9 14.01 23.69 13.36 24.25 12.53ZM77.76 8.7C77.57 9 77.49 9.34 77.5 9.68L77.52 9.69C77.52 9.91 77.57 10.13 77.66 10.33C77.75 10.53 77.87 10.71 78.03 10.86C78.19 11.02 78.38 11.14 78.58 11.21C78.79 11.29 79.01 11.33 79.23 11.33C79.58 11.33 79.91 11.22 80.2 11.03C80.49 10.84 80.71 10.57 80.84 10.25C80.96 9.93 80.99 9.58 80.92 9.24C80.85 8.91 80.68 8.6 80.43 8.36C80.18 8.12 79.86 7.97 79.52 7.91C79.18 7.85 78.83 7.89 78.52 8.04C78.2 8.18 77.94 8.41 77.76 8.7ZM4.53 25.03L21.63 25.03L21.63 19.96C21.1 20.05 20.56 20.09 20.02 20.09C17.25 20.09 14.6 19 12.64 17.05C10.69 15.1 9.59 12.46 9.58 9.71C9.59 9.14 9.64 8.58 9.74 8.02L4.53 8.02L4.53 25.03ZM40.54 8.82L37.15 8.82L37.15 22.47L40.54 22.47L40.54 8.82ZM103.67 15.39C103.65 13.25 101.88 11.91 99.05 11.91L99.11 11.93C96.25 11.93 94.48 13.24 94.41 15.3C94.41 16.88 95.48 17.94 97.52 18.37L99.48 18.78C100.29 18.95 100.61 19.04 100.61 19.6C100.61 20.16 100.14 20.47 99.15 20.47C98.16 20.47 97.55 20.02 97.45 19.25L94.17 19.25C94.31 21.37 96.2 22.75 99.1 22.75C102 22.75 103.95 21.32 103.95 19.22C103.95 17.66 103.11 16.82 101 16.38L98.82 15.94C98.04 15.78 97.65 15.61 97.65 15.08C97.65 14.54 98.1 14.18 99.02 14.18C99.95 14.18 100.58 14.65 100.58 15.39L103.67 15.39ZM47.17 11.93C44 11.93 41.89 13.95 41.89 17.33C41.89 20.79 43.93 22.76 47.17 22.76C50.4 22.76 52.44 20.71 52.44 17.33C52.44 13.95 50.33 11.93 47.17 11.93ZM70.85 11.93C67.69 11.93 65.58 13.95 65.58 17.33L65.6 17.33C65.6 20.79 67.62 22.76 70.85 22.76C74.08 22.76 76.13 20.71 76.13 17.33C76.13 13.95 74.02 11.93 70.85 11.93ZM120.22 12.16L116.93 12.16L116.95 22.51L120.34 22.51L120.34 16.4C120.31 16.19 120.33 15.97 120.39 15.77C120.46 15.56 120.56 15.37 120.71 15.21C120.85 15.05 121.03 14.92 121.22 14.84C121.42 14.75 121.63 14.71 121.85 14.71C122.78 14.71 123.29 15.26 123.29 16.31L123.29 22.51L126.52 22.51L126.52 16.38C126.49 16.17 126.51 15.95 126.57 15.75C126.63 15.55 126.74 15.36 126.88 15.2C127.02 15.04 127.19 14.92 127.39 14.83C127.58 14.75 127.8 14.71 128.01 14.71C128.97 14.71 129.47 15.3 129.47 16.35L129.47 22.51L132.87 22.51L132.87 15.49C132.91 15.03 132.84 14.56 132.69 14.13C132.53 13.7 132.28 13.3 131.96 12.97C131.64 12.64 131.25 12.37 130.82 12.2C130.39 12.03 129.93 11.95 129.47 11.97C128.77 11.94 128.08 12.13 127.51 12.53C126.94 12.93 126.51 13.5 126.3 14.16L126.15 14.16C126.03 13.5 125.67 12.91 125.13 12.51C124.6 12.1 123.93 11.91 123.26 11.97C122.59 11.95 121.94 12.16 121.4 12.56C120.87 12.95 120.48 13.51 120.3 14.15L120.22 14.15L120.22 12.16ZM89.16 22.66C91.74 22.66 93.26 20.7 93.26 17.33L93.33 17.34C93.33 13.96 91.8 12.02 89.14 12.04C88.47 12.01 87.81 12.18 87.24 12.54C86.67 12.9 86.23 13.42 85.97 14.04L85.91 14.04L85.91 12.19L82.54 12.19L82.54 25.84L85.93 25.84L85.93 20.74L85.99 20.74C86.26 21.34 86.71 21.85 87.27 22.19C87.84 22.54 88.5 22.7 89.16 22.66ZM57.06 23.17L53.79 23.17L53.81 23.18C54 25.06 55.88 26.39 58.81 26.41C62.04 26.41 64.24 24.86 64.24 22.39L64.24 12.17L60.88 12.17L60.88 13.86C60.62 13.33 60.21 12.89 59.71 12.58C59.14 12.22 58.48 12.05 57.81 12.08C55.16 12.08 53.59 14.1 53.59 17.33C53.59 20.57 55.24 22.45 57.72 22.45C58.37 22.49 59.02 22.34 59.59 22.02C60.14 21.69 60.59 21.21 60.87 20.63L60.87 22.5C60.87 23.53 60.2 24.22 58.9 24.22C58.52 24.27 58.13 24.19 57.8 24C57.47 23.81 57.21 23.52 57.06 23.17ZM60.87 20.63C60.88 20.62 60.88 20.62 60.88 20.61L60.87 20.61L60.87 20.63ZM60.88 13.86L60.88 14.07L60.98 14.07C60.95 14 60.92 13.93 60.88 13.86ZM80.93 12.16L77.5 12.16L77.55 22.51L80.93 22.51L80.93 12.16ZM112.01 22.5L115.29 22.5L115.36 12.17L111.98 12.17L111.98 18C112.02 18.24 112 18.49 111.93 18.72C111.86 18.96 111.75 19.18 111.58 19.37C111.42 19.55 111.22 19.7 111 19.81C110.77 19.91 110.53 19.97 110.28 19.97C109.23 19.97 108.58 19.31 108.58 18.09L108.58 12.17L105.2 12.17L105.2 18.81C105.16 19.32 105.22 19.83 105.39 20.31C105.56 20.79 105.83 21.22 106.18 21.59C106.53 21.96 106.96 22.25 107.43 22.44C107.9 22.63 108.41 22.73 108.92 22.71C109.6 22.75 110.27 22.55 110.82 22.16C111.37 21.77 111.77 21.21 111.95 20.56L112.01 20.56L112.01 22.5ZM47.2 14.38C48.36 14.38 49.09 15.47 49.09 17.33L49.11 17.34C49.11 19.23 48.36 20.27 47.2 20.27C46.04 20.27 45.32 19.23 45.32 17.33C45.32 15.43 46.04 14.38 47.2 14.38ZM70.88 14.38C72.03 14.38 72.77 15.47 72.77 17.33L72.79 17.34C72.79 19.23 72.05 20.27 70.88 20.27C69.72 20.27 69.01 19.23 69.01 17.33C69.01 15.43 69.73 14.38 70.88 14.38ZM87.85 14.63C89.04 14.63 89.81 15.7 89.81 17.33L89.88 17.34C89.88 19.04 89.04 20.02 87.85 20.02C86.66 20.02 85.89 18.98 85.9 17.33C85.91 15.68 86.66 14.63 87.85 14.63ZM58.92 14.65C60.12 14.65 60.88 15.68 60.88 17.33C60.88 19.04 60.13 19.94 58.92 19.94C57.71 19.94 56.98 18.97 56.98 17.33C56.98 15.7 57.72 14.65 58.92 14.65Z" fill="#1D2130" fill-opacity="1.000000" fill-rule="evenodd"/>
	</g>
</svg>
