<svg width="143.000000" height="28.000000" viewBox="0 0 143 28" fill="none" xmlns="http://www.w3.org/2000/svg" xmlns:xlink="http://www.w3.org/1999/xlink">
	<desc>
			Created with Pixso.
	</desc>
	<defs/>
	<g opacity="0.600000">
		<path id="Logo" d="M7.47 14.14C7.28 14.67 6.97 15.15 6.58 15.55L6.58 15.55C6.12 16.01 5.55 16.35 4.93 16.53C4.31 16.71 3.65 16.74 3.02 16.6C2.38 16.46 1.8 16.16 1.31 15.73C0.82 15.3 0.45 14.76 0.23 14.15C0.07 13.73 0 13.28 0 12.83C0 12.64 0.01 12.44 0.04 12.25C0.14 11.6 0.4 11 0.79 10.48C1.19 9.97 1.71 9.56 2.3 9.3C2.9 9.04 3.55 8.94 4.19 8.99L4.17 8.98C4.83 9.03 5.5 8.94 6.12 8.71C6.75 8.49 7.31 8.12 7.78 7.66C8.25 7.19 8.61 6.62 8.84 6C9.02 5.49 9.12 4.96 9.12 4.43C9.12 4.3 9.11 4.17 9.1 4.05L9.12 4.07C9.11 3.95 9.1 3.83 9.1 3.7C9.1 3.04 9.28 2.38 9.61 1.79C10 1.1 10.6 0.55 11.32 0.21C12.04 -0.13 12.84 -0.23 13.62 -0.1C14.41 0.04 15.13 0.41 15.69 0.98C16.25 1.54 16.62 2.26 16.76 3.04C16.8 3.26 16.82 3.48 16.82 3.7C16.82 4.27 16.7 4.83 16.45 5.35C16.11 6.07 15.56 6.66 14.87 7.06C14.18 7.45 13.39 7.62 12.6 7.55L12.62 7.57C11.96 7.51 11.29 7.6 10.67 7.83C10.05 8.06 9.48 8.42 9.01 8.89C8.54 9.36 8.18 9.92 7.95 10.55C7.77 11.05 7.68 11.58 7.68 12.11C7.68 12.24 7.68 12.37 7.69 12.5L7.67 12.48C7.68 12.6 7.69 12.73 7.69 12.85C7.69 13.29 7.61 13.72 7.47 14.14ZM13.59 17.64L13.61 17.66C12.95 17.61 12.28 17.69 11.66 17.92C11.04 18.15 10.47 18.51 10 18.98C9.53 19.45 9.17 20.02 8.94 20.64C8.76 21.14 8.67 21.67 8.67 22.21C8.67 22.33 8.67 22.46 8.68 22.59L8.66 22.57C8.67 22.69 8.68 22.81 8.68 22.93C8.68 23.6 8.51 24.26 8.17 24.85C7.78 25.54 7.18 26.09 6.46 26.43C5.74 26.76 4.94 26.87 4.16 26.74C3.37 26.6 2.65 26.22 2.09 25.66C1.53 25.1 1.15 24.38 1.02 23.6C0.98 23.38 0.96 23.15 0.96 22.93C0.96 22.37 1.08 21.81 1.33 21.29C1.66 20.57 2.22 19.97 2.91 19.58C3.6 19.18 4.39 19.01 5.18 19.09L5.16 19.07C5.82 19.12 6.49 19.03 7.11 18.81C7.73 18.58 8.3 18.22 8.77 17.75C9.24 17.28 9.6 16.71 9.83 16.09C10.01 15.59 10.1 15.06 10.1 14.52C10.1 14.39 10.1 14.27 10.09 14.14L10.11 14.16C10.09 14.03 10.09 13.91 10.09 13.78C10.09 13.34 10.16 12.91 10.31 12.5C10.5 11.96 10.81 11.48 11.2 11.08C11.6 10.68 12.09 10.38 12.62 10.19C13.15 10 13.72 9.93 14.28 9.99L14.26 9.97C14.92 10.02 15.59 9.93 16.21 9.7C16.83 9.48 17.4 9.12 17.87 8.65C18.34 8.18 18.7 7.61 18.93 6.99C19.11 6.48 19.2 5.95 19.2 5.42C19.2 5.29 19.2 5.16 19.19 5.04L19.21 5.06C19.2 4.94 19.19 4.82 19.19 4.7C19.19 4.03 19.36 3.37 19.7 2.78C20.09 2.09 20.69 1.54 21.41 1.2C22.13 0.86 22.93 0.75 23.71 0.89C24.5 1.03 25.22 1.4 25.78 1.96C26.34 2.53 26.72 3.25 26.85 4.03C26.89 4.25 26.91 4.47 26.91 4.7C26.91 5.26 26.79 5.82 26.54 6.34C26.21 7.06 25.65 7.66 24.96 8.05C24.27 8.44 23.48 8.62 22.69 8.54L22.71 8.56C22.05 8.5 21.38 8.59 20.76 8.82C20.14 9.05 19.57 9.41 19.1 9.88C18.63 10.35 18.27 10.91 18.04 11.54C17.86 12.04 17.77 12.57 17.77 13.1C17.77 13.23 17.77 13.36 17.78 13.49L17.76 13.47C17.78 13.6 17.78 13.72 17.78 13.85C17.78 14.29 17.71 14.72 17.56 15.13C17.37 15.66 17.06 16.15 16.66 16.55C16.26 16.95 15.78 17.25 15.25 17.44C14.72 17.63 14.15 17.7 13.59 17.64ZM39.09 5.08L42.2 5.08L42.2 20.26L39.09 20.26L39.09 5.08ZM140.04 9.8C138.76 9.8 137.73 8.76 137.73 7.48C137.73 6.21 138.76 5.17 140.04 5.17C141.32 5.17 142.35 6.21 142.35 7.48C142.35 8.76 141.32 9.8 140.04 9.8ZM81.64 7.08C81.64 6.71 81.74 6.35 81.95 6.04C82.16 5.73 82.45 5.49 82.79 5.35C83.13 5.21 83.51 5.17 83.87 5.24C84.23 5.31 84.57 5.49 84.83 5.75C85.09 6.02 85.27 6.35 85.34 6.71C85.36 6.83 85.38 6.95 85.38 7.08C85.38 7.32 85.33 7.57 85.23 7.79C85.09 8.13 84.85 8.43 84.54 8.63C84.24 8.84 83.88 8.95 83.51 8.95C83.01 8.94 82.54 8.74 82.19 8.39C81.84 8.04 81.64 7.57 81.64 7.08ZM43.97 15.06L43.97 15.04C43.97 13.96 44.29 12.9 44.88 11.99C45.49 11.08 46.35 10.37 47.35 9.95C48.36 9.53 49.47 9.42 50.53 9.63C51.6 9.84 52.59 10.37 53.36 11.13C54.13 11.9 54.66 12.89 54.87 13.96C54.94 14.31 54.98 14.68 54.98 15.04C54.98 15.76 54.84 16.47 54.56 17.14C54.15 18.15 53.44 19.01 52.54 19.62C51.63 20.22 50.56 20.55 49.47 20.55C48.75 20.56 48.03 20.42 47.36 20.15C46.69 19.87 46.08 19.47 45.57 18.96C45.06 18.45 44.65 17.84 44.38 17.17C44.11 16.51 43.97 15.81 43.97 15.1Q43.97 15.08 43.97 15.06ZM69.17 15.06L69.17 15.04C69.17 13.96 69.49 12.9 70.09 11.99C70.69 11.08 71.55 10.37 72.55 9.95C73.56 9.53 74.67 9.42 75.74 9.63C76.81 9.84 77.79 10.37 78.56 11.13C79.33 11.9 79.86 12.89 80.07 13.96C80.15 14.31 80.18 14.68 80.18 15.04C80.18 15.76 80.04 16.47 79.76 17.14C79.35 18.15 78.64 19.01 77.74 19.62C76.83 20.22 75.76 20.55 74.67 20.55C73.95 20.56 73.23 20.42 72.56 20.15C71.89 19.87 71.28 19.47 70.77 18.96C70.26 18.45 69.85 17.84 69.58 17.17C69.31 16.51 69.17 15.81 69.17 15.1C69.17 15.09 69.17 15.07 69.17 15.06ZM137.4 13.87L137.4 20.26L134.29 20.26L134.29 14.14C134.29 13.11 133.79 12.44 132.79 12.44C131.75 12.44 131.17 13.17 131.17 14.39L131.17 20.26L128.05 20.26L128.05 14.14C128.05 13.11 127.56 12.44 126.56 12.44C125.52 12.44 124.94 13.17 124.94 14.39L124.94 20.26L121.82 20.26L121.82 9.86L124.94 9.86L124.94 10.82C125.26 10.39 125.68 10.06 126.17 9.84C126.66 9.62 127.19 9.53 127.72 9.57C128.25 9.54 128.79 9.66 129.26 9.9C129.74 10.14 130.15 10.5 130.44 10.94C130.79 10.48 131.25 10.11 131.77 9.87C132.3 9.63 132.88 9.53 133.46 9.57C135.84 9.57 137.4 11.28 137.4 13.87ZM67.4 9.86L67.4 19.73C67.4 23.22 64.68 24.7 61.92 24.7C60.94 24.77 59.97 24.58 59.1 24.13C58.23 23.69 57.5 23.01 56.99 22.18L59.65 20.64C59.87 21.08 60.21 21.43 60.63 21.67C61.06 21.9 61.54 22 62.02 21.95C62.33 22 62.64 21.97 62.94 21.87C63.23 21.78 63.5 21.62 63.73 21.4C63.95 21.19 64.13 20.93 64.24 20.64C64.33 20.4 64.38 20.15 64.38 19.9C64.38 19.84 64.37 19.79 64.37 19.73L64.37 18.78C64 19.23 63.54 19.58 63.01 19.81C62.49 20.05 61.91 20.16 61.34 20.13C59.96 20.09 58.66 19.51 57.71 18.53C56.76 17.54 56.22 16.22 56.22 14.85C56.22 13.48 56.76 12.16 57.71 11.17C58.66 10.19 59.96 9.61 61.34 9.57C61.91 9.54 62.49 9.65 63.01 9.88C63.54 10.12 64 10.47 64.37 10.92L64.37 9.86L67.4 9.86ZM98.53 15.06C98.53 15.15 98.53 15.24 98.53 15.33C98.53 15.93 98.43 16.52 98.23 17.08C98 17.73 97.65 18.33 97.18 18.84C96.72 19.35 96.16 19.76 95.54 20.05C94.92 20.35 94.25 20.52 93.56 20.55C92.98 20.58 92.41 20.48 91.87 20.26C91.33 20.04 90.86 19.71 90.47 19.28L90.47 24.41L87.35 24.41L87.35 9.86L90.47 9.86L90.47 10.84C90.86 10.41 91.34 10.08 91.87 9.86C92.41 9.64 92.98 9.54 93.56 9.57C94.25 9.6 94.92 9.77 95.54 10.07C96.17 10.36 96.72 10.77 97.18 11.28C97.65 11.79 98 12.39 98.23 13.04C98.43 13.6 98.53 14.19 98.53 14.79C98.53 14.88 98.53 14.97 98.53 15.06ZM108.15 17.14C108.15 19.53 106.07 20.55 103.82 20.55C102.92 20.63 102.01 20.44 101.21 20C100.42 19.56 99.77 18.89 99.36 18.07L102.06 16.54C102.17 16.91 102.4 17.24 102.72 17.46C103.04 17.68 103.43 17.79 103.82 17.76C104.57 17.76 104.94 17.53 104.94 17.12C104.94 15.97 99.83 16.58 99.83 12.98C99.83 10.71 101.74 9.57 103.9 9.57C104.72 9.55 105.52 9.74 106.23 10.13C106.95 10.52 107.54 11.1 107.95 11.8L105.3 13.23C105.18 12.96 104.98 12.73 104.74 12.56C104.49 12.4 104.2 12.31 103.9 12.32C103.36 12.32 103.03 12.53 103.03 12.9C103.03 14.08 108.15 13.29 108.15 17.14ZM81.95 9.86L85.07 9.86L85.07 20.26L81.95 20.26L81.95 9.86ZM119.53 9.86L119.53 20.26L116.41 20.26L116.41 19.28C116.05 19.71 115.6 20.05 115.08 20.27C114.57 20.49 114 20.59 113.44 20.55C111.35 20.55 109.56 19.05 109.56 16.24L109.56 9.86L112.68 9.86L112.68 15.79C112.67 15.85 112.67 15.91 112.67 15.97C112.67 16.15 112.7 16.34 112.76 16.52C112.84 16.76 112.97 16.97 113.14 17.15C113.32 17.33 113.53 17.47 113.76 17.56C113.99 17.65 114.24 17.69 114.49 17.68C115.63 17.68 116.42 17.01 116.42 15.54L116.42 9.87L119.53 9.86ZM20.46 13.55C20.65 13.02 20.95 12.53 21.35 12.13L21.35 12.13C21.81 11.67 22.38 11.34 23 11.15C23.62 10.97 24.28 10.95 24.91 11.09C25.55 11.23 26.14 11.53 26.62 11.95C27.11 12.38 27.48 12.93 27.7 13.54C27.86 13.96 27.94 14.41 27.94 14.85C27.94 15.05 27.92 15.25 27.89 15.44C27.79 16.08 27.53 16.69 27.14 17.2C26.74 17.72 26.22 18.12 25.63 18.38C25.03 18.64 24.38 18.75 23.74 18.69L23.76 18.71C23.1 18.66 22.43 18.74 21.81 18.97C21.19 19.2 20.62 19.56 20.15 20.03C19.68 20.5 19.32 21.07 19.09 21.69C18.91 22.19 18.82 22.72 18.82 23.26C18.82 23.38 18.82 23.51 18.83 23.64L18.81 23.62C18.82 23.74 18.83 23.86 18.83 23.98C18.83 24.65 18.66 25.31 18.32 25.9C17.93 26.59 17.33 27.14 16.61 27.48C15.89 27.82 15.09 27.92 14.31 27.79C13.52 27.65 12.8 27.28 12.24 26.71C11.68 26.15 11.3 25.43 11.17 24.65C11.13 24.43 11.11 24.21 11.11 23.98C11.11 23.42 11.23 22.86 11.47 22.34C11.81 21.62 12.36 21.02 13.05 20.63C13.74 20.24 14.54 20.06 15.33 20.14L15.31 20.12C15.97 20.17 16.63 20.08 17.26 19.86C17.88 19.63 18.45 19.27 18.92 18.8C19.38 18.33 19.75 17.76 19.97 17.14C20.16 16.64 20.25 16.11 20.25 15.57C20.25 15.45 20.25 15.32 20.23 15.19L20.25 15.21C20.24 15.08 20.24 14.96 20.24 14.84C20.24 14.4 20.31 13.96 20.46 13.55ZM64.37 14.85C64.37 14.82 64.37 14.78 64.37 14.75C64.37 14.28 64.24 13.82 64 13.42C63.73 13 63.35 12.66 62.89 12.45C62.43 12.24 61.92 12.18 61.43 12.26C60.93 12.35 60.47 12.58 60.11 12.93C59.75 13.28 59.5 13.73 59.39 14.22C59.35 14.39 59.33 14.57 59.33 14.75C59.33 15.07 59.4 15.39 59.52 15.69C59.71 16.16 60.03 16.55 60.45 16.84C60.86 17.12 61.35 17.27 61.86 17.27C62.18 17.29 62.51 17.24 62.82 17.13C63.13 17.02 63.41 16.84 63.65 16.62C63.89 16.39 64.07 16.11 64.2 15.81C64.31 15.53 64.37 15.22 64.37 14.92C64.37 14.9 64.37 14.87 64.37 14.85ZM95.41 15.06C95.4 14.57 95.24 14.1 94.96 13.7C94.68 13.3 94.29 13 93.84 12.82C93.39 12.64 92.89 12.6 92.42 12.7C91.94 12.81 91.51 13.05 91.17 13.4C90.83 13.74 90.6 14.18 90.51 14.66C90.48 14.81 90.47 14.97 90.47 15.12C90.47 15.45 90.53 15.78 90.66 16.08C90.85 16.53 91.17 16.91 91.57 17.18C91.98 17.45 92.45 17.6 92.94 17.6C93.27 17.61 93.61 17.55 93.92 17.43C94.23 17.31 94.51 17.12 94.74 16.88C94.98 16.64 95.16 16.36 95.27 16.04C95.37 15.78 95.42 15.5 95.42 15.23C95.42 15.17 95.41 15.12 95.41 15.06ZM51.86 15.06C51.85 14.59 51.7 14.13 51.43 13.75C51.16 13.37 50.78 13.07 50.34 12.9C49.9 12.73 49.43 12.69 48.97 12.79C48.51 12.89 48.09 13.12 47.76 13.46C47.43 13.8 47.21 14.22 47.12 14.68C47.1 14.83 47.08 14.98 47.08 15.13C47.08 15.44 47.15 15.76 47.27 16.06C47.45 16.49 47.76 16.86 48.15 17.12C48.54 17.38 49 17.52 49.47 17.52C49.8 17.53 50.12 17.47 50.41 17.35C50.71 17.23 50.98 17.04 51.21 16.81C51.43 16.58 51.61 16.31 51.72 16.01C51.82 15.74 51.87 15.47 51.87 15.19C51.87 15.14 51.87 15.1 51.86 15.06ZM77.06 15.06C77.05 14.59 76.9 14.13 76.63 13.75C76.36 13.37 75.98 13.07 75.54 12.9C75.11 12.73 74.63 12.69 74.17 12.79C73.71 12.89 73.29 13.12 72.96 13.46C72.63 13.8 72.41 14.22 72.33 14.68C72.3 14.83 72.28 14.98 72.28 15.13C72.28 15.44 72.35 15.76 72.47 16.06C72.66 16.49 72.96 16.86 73.35 17.12C73.75 17.38 74.21 17.52 74.67 17.52C75 17.53 75.32 17.47 75.62 17.35C75.91 17.23 76.18 17.04 76.41 16.81C76.63 16.58 76.81 16.31 76.92 16.01C77.02 15.74 77.07 15.47 77.07 15.19C77.07 15.14 77.07 15.1 77.06 15.06Z" fill="#1D2130" fill-opacity="1.000000" fill-rule="evenodd"/>
	</g>
</svg>
