<svg width="123.000000" height="25.000000" viewBox="0 0 123 25" fill="none" xmlns="http://www.w3.org/2000/svg" xmlns:xlink="http://www.w3.org/1999/xlink">
	<desc>
			Created with Pixso.
	</desc>
	<defs/>
	<g opacity="0.600000">
		<path id="Logo" d="M-0.19 10.37C0.59 7.28 2.38 4.54 4.91 2.59C7.43 0.63 10.55 -0.43 13.76 -0.43C16.96 -0.43 20.08 0.63 22.6 2.59C25.13 4.54 26.92 7.28 27.7 10.37L26.44 10.37C24.31 10.33 22.23 10.96 20.49 12.16C20.39 12.24 20.28 12.3 20.17 12.36L20.03 12.36C19.92 12.3 19.81 12.24 19.71 12.16C17.95 10.99 15.88 10.37 13.76 10.37C11.63 10.37 9.56 10.99 7.8 12.16C7.7 12.24 7.59 12.3 7.49 12.36L7.34 12.36C7.23 12.3 7.12 12.24 7.02 12.16C5.28 10.96 3.2 10.33 1.07 10.37L-0.19 10.37ZM39.08 19.54C38.46 19.57 37.84 19.4 37.33 19.04C37.12 18.88 36.95 18.68 36.83 18.44C36.72 18.22 36.67 17.98 36.67 17.74C36.67 17.72 36.67 17.7 36.67 17.68L36.67 8.04C36.67 8.02 36.67 8.01 36.67 8C36.67 7.97 36.67 7.94 36.68 7.91C36.7 7.88 36.72 7.84 36.75 7.81C36.78 7.78 36.81 7.76 36.85 7.75C36.89 7.73 36.93 7.73 36.98 7.73L38.74 7.73C38.94 7.73 39.03 7.84 39.03 8.04L39.03 16.93C39.03 17.32 39.21 17.52 39.58 17.52C39.73 17.53 39.89 17.51 40.04 17.47C40.25 17.47 40.36 17.53 40.38 17.72L40.53 19.02C40.54 19.04 40.54 19.05 40.54 19.07C40.54 19.09 40.54 19.11 40.53 19.13C40.52 19.17 40.5 19.21 40.48 19.24C40.46 19.27 40.43 19.29 40.39 19.31C40.36 19.33 40.32 19.34 40.28 19.34C39.89 19.47 39.49 19.53 39.08 19.54ZM74.22 9.95C73.94 10.19 73.59 10.32 73.22 10.32C72.85 10.32 72.49 10.19 72.22 9.95C72.09 9.83 71.99 9.69 71.92 9.53C71.85 9.37 71.82 9.21 71.82 9.03C71.82 8.86 71.85 8.69 71.92 8.54C71.99 8.38 72.09 8.24 72.22 8.12C72.5 7.88 72.85 7.76 73.22 7.76C73.59 7.76 73.94 7.88 74.22 8.12C74.35 8.24 74.45 8.38 74.52 8.54C74.58 8.69 74.62 8.86 74.62 9.03C74.62 9.21 74.58 9.37 74.52 9.53C74.45 9.69 74.35 9.83 74.22 9.95ZM91.5 19.54C90.55 19.58 89.62 19.35 88.8 18.89C88.47 18.7 88.19 18.43 87.98 18.11C87.77 17.79 87.63 17.43 87.58 17.05C87.58 16.84 87.65 16.74 87.89 16.74L89.43 16.74C89.5 16.74 89.57 16.77 89.63 16.81C89.69 16.85 89.74 16.9 89.77 16.97C89.99 17.53 90.57 17.81 91.5 17.81C91.82 17.83 92.14 17.76 92.43 17.62C92.53 17.58 92.62 17.51 92.68 17.42C92.74 17.33 92.78 17.22 92.79 17.12C92.79 16.84 92.62 16.66 92.28 16.53C91.88 16.4 91.47 16.31 91.05 16.27C90.56 16.22 90.07 16.13 89.59 16.01C89.11 15.91 88.69 15.66 88.36 15.32C88.16 15.08 88.02 14.8 87.94 14.51C87.88 14.32 87.85 14.11 87.85 13.91C87.85 13.81 87.86 13.71 87.88 13.61C87.92 13.3 88.02 13.01 88.18 12.75C88.34 12.49 88.56 12.27 88.81 12.09C89.57 11.61 90.45 11.38 91.35 11.43C92.22 11.4 93.07 11.61 93.83 12.04C94.13 12.21 94.39 12.44 94.59 12.73C94.79 13.01 94.92 13.33 94.98 13.67C94.98 13.88 94.89 13.98 94.7 13.98L93.14 13.98C93.08 13.99 93.01 13.97 92.96 13.94C92.9 13.91 92.86 13.86 92.83 13.8C92.72 13.55 92.53 13.35 92.28 13.25C92 13.1 91.69 13.03 91.38 13.04C91.07 13.02 90.77 13.08 90.49 13.21C90.39 13.25 90.31 13.32 90.25 13.4C90.19 13.49 90.15 13.59 90.15 13.69C90.16 13.84 90.21 13.97 90.3 14.08C90.39 14.19 90.52 14.27 90.66 14.31C91.06 14.46 91.48 14.56 91.9 14.62C92.4 14.68 92.88 14.77 93.36 14.89C93.83 15 94.26 15.24 94.59 15.59C94.77 15.78 94.9 16 94.99 16.25C95.07 16.46 95.11 16.68 95.11 16.91C95.11 16.94 95.11 16.98 95.11 17.01C95.11 17.03 95.11 17.05 95.11 17.06C95.11 17.4 95.02 17.74 94.86 18.04C94.69 18.36 94.44 18.63 94.13 18.82C93.35 19.32 92.43 19.57 91.5 19.54ZM49 18.43C48.12 19.15 47 19.55 45.85 19.55C44.7 19.55 43.59 19.15 42.71 18.43C41.93 17.65 41.49 16.59 41.49 15.5C41.49 14.4 41.93 13.35 42.71 12.57C43.59 11.85 44.71 11.45 45.85 11.45C47 11.45 48.11 11.85 49 12.57C49.76 13.36 50.19 14.4 50.19 15.49C50.19 16.58 49.76 17.63 49 18.41L49 18.43ZM69.25 18.43C68.36 19.15 67.25 19.54 66.1 19.54C64.95 19.54 63.84 19.15 62.95 18.43C62.19 17.64 61.76 16.59 61.76 15.5C61.76 14.41 62.19 13.36 62.95 12.57C63.84 11.85 64.95 11.46 66.1 11.46C67.25 11.46 68.36 11.85 69.25 12.57C70.01 13.36 70.43 14.4 70.43 15.49C70.43 16.58 70.01 17.63 69.25 18.41L69.25 18.43ZM82.39 11.47C82.94 11.45 83.49 11.54 84 11.73C84.52 11.92 84.99 12.21 85.39 12.59C86.13 13.38 86.54 14.42 86.54 15.5C86.54 16.58 86.13 17.62 85.39 18.4C84.99 18.79 84.52 19.08 84 19.28C83.49 19.47 82.94 19.56 82.39 19.54C81.6 19.56 80.83 19.32 80.19 18.86L80.19 22.62C80.19 22.81 80.09 22.91 79.89 22.91L78.12 22.91C78.08 22.91 78.04 22.91 78 22.9C77.97 22.89 77.93 22.87 77.9 22.84C77.87 22.81 77.85 22.78 77.84 22.74C77.83 22.71 77.83 22.69 77.83 22.66C77.83 22.65 77.83 22.63 77.83 22.62L77.83 14.09C77.83 14.06 77.84 14.04 77.84 14.01C77.84 13.95 77.83 13.9 77.81 13.84C77.78 13.76 77.74 13.69 77.68 13.63C77.62 13.57 77.54 13.52 77.46 13.5C77.38 13.47 77.3 13.46 77.21 13.48L76.87 13.48C76.63 13.48 76.52 13.39 76.52 13.23L76.52 12C76.52 11.99 76.52 11.98 76.52 11.97C76.52 11.91 76.54 11.84 76.58 11.78C76.62 11.72 76.69 11.68 76.76 11.66C77.12 11.52 77.51 11.46 77.89 11.47C78.28 11.43 78.67 11.51 79 11.7C79.34 11.89 79.62 12.17 79.79 12.51C80.13 12.17 80.54 11.9 80.98 11.72C81.43 11.54 81.91 11.46 82.39 11.47ZM122.87 19.02C122.88 19.04 122.88 19.06 122.88 19.08C122.88 19.1 122.88 19.12 122.88 19.13C122.87 19.17 122.85 19.2 122.83 19.24C122.81 19.27 122.78 19.29 122.74 19.31C122.71 19.33 122.67 19.34 122.63 19.34C122.24 19.47 121.84 19.53 121.43 19.54C120.8 19.57 120.19 19.39 119.67 19.04C119.45 18.89 119.27 18.68 119.15 18.45C119.03 18.22 118.97 17.96 118.97 17.71C118.97 17.7 118.97 17.69 118.97 17.68L118.97 15.23C118.97 15.2 118.97 15.17 118.97 15.15C118.97 14.71 118.82 14.29 118.53 13.95C118.38 13.79 118.2 13.66 118 13.58C117.79 13.49 117.57 13.46 117.35 13.46C117.16 13.46 116.96 13.49 116.78 13.57C116.6 13.65 116.43 13.77 116.31 13.92C116.05 14.25 115.9 14.65 115.9 15.07C115.9 15.09 115.91 15.12 115.91 15.15L115.91 18.99C115.91 19.18 115.81 19.29 115.61 19.29L113.84 19.29C113.8 19.29 113.76 19.29 113.72 19.28C113.68 19.26 113.64 19.24 113.61 19.21C113.58 19.18 113.56 19.15 113.55 19.11C113.54 19.08 113.53 19.05 113.53 19.02C113.53 19.01 113.53 19 113.53 18.99L113.53 15.23C113.54 15.2 113.54 15.17 113.54 15.14C113.54 14.71 113.39 14.29 113.13 13.95C113 13.8 112.84 13.68 112.66 13.59C112.47 13.51 112.28 13.46 112.08 13.46C111.86 13.46 111.65 13.49 111.45 13.57C111.25 13.65 111.07 13.77 110.92 13.92C110.64 14.24 110.49 14.64 110.49 15.06C110.49 15.09 110.49 15.12 110.49 15.15L110.49 18.99C110.49 19 110.49 19.01 110.49 19.02C110.49 19.05 110.49 19.08 110.48 19.11C110.46 19.15 110.44 19.18 110.41 19.21C110.38 19.24 110.35 19.26 110.31 19.28C110.27 19.29 110.23 19.29 110.19 19.29L108.48 19.29C108.28 19.29 108.18 19.18 108.18 18.99L108.18 14.09C108.19 14.06 108.19 14.04 108.19 14.01C108.19 13.95 108.18 13.9 108.16 13.84C108.13 13.76 108.09 13.69 108.03 13.63C107.97 13.57 107.89 13.52 107.81 13.5C107.73 13.47 107.65 13.46 107.56 13.48L107.22 13.48C106.99 13.48 106.87 13.39 106.87 13.23L106.87 12C106.87 11.99 106.87 11.98 106.87 11.97C106.87 11.91 106.89 11.84 106.93 11.78C106.97 11.72 107.04 11.68 107.11 11.66C107.47 11.52 107.86 11.46 108.25 11.47C108.62 11.44 108.99 11.51 109.32 11.68C109.65 11.85 109.92 12.11 110.11 12.42C110.47 12.09 110.89 11.84 111.35 11.67C111.8 11.51 112.29 11.44 112.78 11.47C113.25 11.45 113.72 11.53 114.16 11.72C114.59 11.92 114.97 12.21 115.27 12.57C115.61 12.2 116.04 11.9 116.52 11.71C116.99 11.52 117.5 11.44 118.02 11.47C118.47 11.45 118.93 11.52 119.36 11.68C119.79 11.85 120.18 12.09 120.5 12.41C120.82 12.75 121.07 13.14 121.23 13.57C121.37 13.95 121.44 14.35 121.44 14.75C121.44 14.8 121.44 14.86 121.44 14.92L121.44 16.93C121.44 17.32 121.62 17.52 121.95 17.52C122.11 17.53 122.28 17.51 122.43 17.47C122.65 17.47 122.77 17.55 122.78 17.72L122.87 19.02ZM59.9 11.72C60.1 11.72 60.19 11.82 60.19 12.02L60.19 19.48C60.19 19.52 60.19 19.56 60.19 19.6C60.19 20.06 60.1 20.52 59.91 20.94C59.71 21.41 59.41 21.82 59.02 22.15C58.18 22.87 57.08 23.24 55.97 23.19C54.96 23.22 53.97 22.95 53.13 22.41C52.77 22.17 52.46 21.87 52.22 21.51C51.98 21.15 51.82 20.75 51.75 20.33C51.75 20.12 51.75 20.03 52.04 20.03L53.8 20.03C53.87 20.03 53.95 20.05 54.01 20.1C54.07 20.14 54.12 20.2 54.14 20.27C54.26 20.58 54.49 20.84 54.78 21C55.15 21.19 55.55 21.28 55.96 21.28C56.21 21.29 56.45 21.25 56.69 21.17C56.92 21.09 57.13 20.96 57.31 20.8C57.48 20.62 57.61 20.42 57.69 20.2C57.77 20 57.81 19.79 57.81 19.57C57.81 19.55 57.81 19.52 57.81 19.5L57.81 18.84C57.18 19.3 56.41 19.54 55.62 19.52C55.08 19.54 54.53 19.45 54.02 19.25C53.51 19.06 53.04 18.76 52.64 18.38C51.89 17.61 51.46 16.57 51.46 15.49C51.46 14.41 51.89 13.38 52.64 12.6C53.04 12.23 53.51 11.93 54.02 11.74C54.53 11.55 55.08 11.46 55.62 11.48C56.43 11.46 57.22 11.71 57.86 12.2L57.86 12.03C57.86 12.02 57.86 12.01 57.86 12C57.86 11.97 57.86 11.94 57.87 11.91C57.88 11.87 57.91 11.84 57.93 11.81C57.96 11.78 58 11.76 58.03 11.74C58.07 11.73 58.11 11.72 58.15 11.73L59.9 11.72ZM74.44 19.54C73.82 19.57 73.2 19.39 72.69 19.04C72.48 18.88 72.31 18.67 72.2 18.44C72.09 18.22 72.04 17.98 72.04 17.73C72.04 17.71 72.04 17.7 72.04 17.68L72.04 12.02C72.04 12.01 72.04 12 72.04 11.99C72.04 11.96 72.04 11.93 72.05 11.9C72.06 11.86 72.09 11.82 72.12 11.79C72.15 11.77 72.18 11.74 72.22 11.73C72.26 11.72 72.3 11.71 72.34 11.72L74.11 11.72C74.3 11.72 74.4 11.82 74.4 12.02L74.4 16.93C74.4 17.32 74.58 17.52 74.93 17.52C75.09 17.53 75.25 17.51 75.41 17.47C75.62 17.47 75.73 17.53 75.74 17.72L75.9 19.02C75.9 19.04 75.91 19.05 75.91 19.07C75.91 19.09 75.9 19.11 75.9 19.13C75.89 19.17 75.87 19.21 75.85 19.24C75.82 19.27 75.79 19.29 75.76 19.31C75.73 19.33 75.69 19.34 75.65 19.34C75.26 19.47 74.85 19.53 74.44 19.54ZM106.2 19.02C106.2 19.03 106.2 19.05 106.2 19.06C106.2 19.08 106.2 19.11 106.19 19.13C106.19 19.17 106.17 19.2 106.15 19.23C106.12 19.26 106.1 19.29 106.06 19.3C106.03 19.32 105.99 19.34 105.96 19.34C105.57 19.46 105.17 19.53 104.77 19.54C104.37 19.58 103.97 19.52 103.6 19.36C103.23 19.2 102.91 18.95 102.67 18.63C101.93 19.26 100.97 19.59 100 19.54C99.54 19.56 99.09 19.49 98.67 19.32C98.24 19.16 97.86 18.91 97.54 18.59C97.22 18.26 96.98 17.86 96.82 17.43C96.67 17.05 96.6 16.65 96.6 16.25C96.6 16.2 96.6 16.14 96.61 16.09L96.61 12.02C96.61 11.82 96.7 11.72 96.9 11.72L98.66 11.72C98.86 11.72 98.96 11.82 98.96 12.02L98.96 15.77C98.96 15.8 98.96 15.82 98.96 15.85C98.96 16.29 99.12 16.72 99.41 17.05C99.56 17.21 99.75 17.34 99.96 17.43C100.17 17.51 100.39 17.55 100.62 17.54C100.85 17.55 101.08 17.52 101.29 17.44C101.51 17.36 101.71 17.24 101.88 17.08C102.03 16.92 102.16 16.73 102.24 16.51C102.31 16.33 102.35 16.13 102.35 15.92C102.35 15.9 102.35 15.87 102.35 15.85L102.35 12.02C102.35 11.82 102.44 11.72 102.64 11.72L104.43 11.72C104.62 11.72 104.72 11.82 104.72 12.02L104.72 16.92C104.72 17.32 104.9 17.52 105.24 17.52C105.41 17.53 105.57 17.51 105.73 17.47C105.77 17.46 105.81 17.46 105.85 17.46C105.89 17.47 105.93 17.49 105.96 17.51C105.99 17.53 106.02 17.57 106.04 17.6C106.06 17.64 106.07 17.68 106.07 17.72L106.2 19.02ZM26.44 16.15C25.62 16.13 24.82 16.39 24.17 16.89C22.98 17.71 21.55 18.15 20.09 18.15C18.64 18.15 17.21 17.71 16.02 16.89C15.37 16.39 14.57 16.12 13.75 16.15C12.93 16.13 12.13 16.39 11.48 16.89C10.29 17.71 8.87 18.16 7.41 18.16C5.96 18.16 4.53 17.71 3.34 16.89C2.69 16.39 1.89 16.13 1.07 16.15L-0.62 16.15L-0.62 12.81L1.13 12.81C2.59 12.78 4.02 13.23 5.2 14.08C5.85 14.56 6.65 14.82 7.46 14.82C8.28 14.82 9.07 14.56 9.73 14.08C10.93 13.25 12.35 12.81 13.81 12.81C15.27 12.81 16.69 13.25 17.89 14.08C18.54 14.56 19.34 14.82 20.15 14.82C20.97 14.82 21.76 14.56 22.42 14.08C23.59 13.24 25 12.79 26.44 12.81L28.13 12.81L28.13 16.15L26.44 16.15ZM80.75 17.05C80.94 17.25 81.16 17.4 81.41 17.51C81.66 17.61 81.93 17.67 82.2 17.67C82.47 17.67 82.74 17.61 82.98 17.51C83.23 17.4 83.46 17.25 83.65 17.05C84.02 16.64 84.22 16.11 84.22 15.55C84.22 15.52 84.22 15.49 84.22 15.46C84.22 15.43 84.22 15.39 84.22 15.36C84.22 14.81 84.02 14.28 83.65 13.87C83.46 13.68 83.23 13.52 82.98 13.42C82.74 13.31 82.47 13.26 82.2 13.26C81.93 13.26 81.66 13.31 81.41 13.42C81.16 13.52 80.94 13.68 80.75 13.87C80.39 14.29 80.19 14.82 80.19 15.37C80.19 15.4 80.19 15.43 80.19 15.46C80.19 15.49 80.19 15.52 80.19 15.55C80.19 16.1 80.39 16.63 80.75 17.05ZM55.82 17.67C56.09 17.67 56.36 17.62 56.61 17.52C56.86 17.41 57.08 17.25 57.26 17.05C57.61 16.61 57.8 16.06 57.8 15.49C57.8 14.93 57.61 14.38 57.26 13.93C57.08 13.74 56.86 13.58 56.62 13.47C56.37 13.37 56.1 13.32 55.83 13.33C55.56 13.32 55.29 13.37 55.04 13.48C54.78 13.58 54.56 13.74 54.38 13.94C54.01 14.35 53.81 14.87 53.81 15.41C53.81 15.44 53.81 15.47 53.81 15.5C53.81 15.53 53.81 15.55 53.81 15.58C53.81 16.12 54 16.64 54.36 17.05C54.55 17.25 54.77 17.41 55.03 17.52C55.28 17.62 55.55 17.67 55.82 17.67ZM44.36 17.05C44.77 17.42 45.31 17.63 45.86 17.63C46.42 17.63 46.95 17.42 47.36 17.05C47.74 16.63 47.94 16.09 47.94 15.52C47.94 14.96 47.74 14.42 47.36 14C46.95 13.63 46.42 13.42 45.86 13.42C45.31 13.42 44.77 13.63 44.36 14C43.99 14.42 43.79 14.96 43.79 15.52C43.79 16.09 43.99 16.63 44.36 17.05ZM64.6 17.05C64.8 17.24 65.04 17.39 65.3 17.49C65.55 17.59 65.83 17.63 66.11 17.62C66.38 17.63 66.66 17.58 66.92 17.49C67.17 17.39 67.41 17.24 67.61 17.05C67.98 16.63 68.18 16.08 68.18 15.52C68.18 14.96 67.98 14.42 67.61 14C67.41 13.81 67.17 13.66 66.92 13.56C66.66 13.46 66.38 13.42 66.11 13.42C65.83 13.41 65.55 13.46 65.3 13.56C65.04 13.66 64.8 13.81 64.6 14C64.23 14.42 64.03 14.96 64.03 15.52C64.03 16.08 64.23 16.63 64.6 17.05ZM26.44 22.12C25.62 22.1 24.82 22.36 24.17 22.86C22.98 23.68 21.55 24.12 20.09 24.12C18.64 24.12 17.21 23.68 16.02 22.86C15.37 22.36 14.57 22.09 13.75 22.12C12.93 22.1 12.13 22.36 11.48 22.86C10.29 23.68 8.87 24.12 7.41 24.12C5.96 24.12 4.53 23.68 3.34 22.86C2.69 22.36 1.89 22.1 1.07 22.12L-0.62 22.12L-0.62 18.78L1.13 18.78C2.59 18.75 4.02 19.2 5.2 20.05C5.85 20.53 6.65 20.79 7.46 20.79C8.28 20.79 9.07 20.53 9.73 20.05C10.93 19.22 12.35 18.78 13.81 18.78C15.27 18.78 16.69 19.22 17.89 20.05C18.54 20.53 19.34 20.79 20.15 20.79C20.97 20.79 21.76 20.53 22.42 20.05C23.59 19.21 25 18.76 26.44 18.78L28.13 18.78L28.13 22.12L26.44 22.12Z" fill="#1D2130" fill-opacity="1.000000" fill-rule="evenodd"/>
	</g>
</svg>
