<svg width="136.000000" height="31.000000" viewBox="0 0 136 31" fill="none" xmlns="http://www.w3.org/2000/svg" xmlns:xlink="http://www.w3.org/1999/xlink">
	<desc>
			Created with Pixso.
	</desc>
	<defs/>
	<g opacity="0.600000">
		<path id="Logo" d="M13.32 -0.63L13.32 3.87C10.42 3.87 7.64 5.03 5.59 7.09C3.55 9.14 2.4 11.94 2.4 14.84C2.4 17.75 3.55 20.54 5.59 22.6C7.64 24.66 10.42 25.82 13.32 25.82L13.32 30.32L-0.82 30.32L-0.82 -0.63L13.32 -0.63ZM13.32 25.82L13.32 3.87C16.21 3.87 18.99 5.03 21.04 7.09C23.09 9.14 24.24 11.94 24.24 14.84C24.24 17.75 23.09 20.54 21.04 22.6C18.99 24.66 16.21 25.82 13.32 25.82ZM32.17 6.63L35.34 6.63L35.34 21.95L32.17 21.95L32.17 6.63ZM133.67 11.39C132.39 11.39 131.35 10.35 131.35 9.06C131.35 7.77 132.39 6.73 133.67 6.73C134.96 6.73 136 7.77 136 9.06C136 10.35 134.96 11.39 133.67 11.39ZM74.96 8.64C74.96 8.27 75.07 7.91 75.27 7.6C75.48 7.29 75.77 7.04 76.12 6.9C76.46 6.76 76.84 6.72 77.2 6.79C77.57 6.87 77.9 7.05 78.16 7.31C78.43 7.57 78.6 7.91 78.68 8.28C78.7 8.4 78.71 8.52 78.71 8.64C78.71 8.89 78.66 9.14 78.57 9.37C78.43 9.71 78.19 10.01 77.88 10.21C77.57 10.42 77.21 10.53 76.83 10.53C76.34 10.53 75.86 10.33 75.51 9.97C75.16 9.62 74.96 9.14 74.96 8.64ZM62.43 16.7C62.43 15.6 62.76 14.52 63.37 13.61C63.98 12.69 64.84 11.98 65.85 11.56C66.87 11.14 67.98 11.03 69.06 11.24C70.13 11.46 71.12 11.99 71.89 12.77C72.67 13.55 73.19 14.54 73.41 15.62C73.48 15.98 73.51 16.34 73.51 16.7C73.51 17.43 73.37 18.16 73.09 18.84C72.67 19.85 71.95 20.72 71.04 21.33C70.13 21.94 69.06 22.27 67.96 22.26C67.23 22.27 66.51 22.13 65.83 21.86C65.16 21.58 64.55 21.17 64.03 20.65C63.52 20.13 63.11 19.52 62.84 18.84C62.57 18.18 62.43 17.47 62.43 16.76C62.43 16.74 62.43 16.72 62.43 16.7ZM37.11 16.7C37.11 15.6 37.44 14.52 38.05 13.61C38.66 12.69 39.52 11.98 40.54 11.56C41.55 11.14 42.67 11.03 43.74 11.24C44.82 11.46 45.8 12 46.58 12.78C47.35 13.56 47.88 14.55 48.09 15.63C48.15 15.99 48.19 16.34 48.19 16.7C48.19 17.44 48.04 18.17 47.76 18.85C47.33 19.87 46.62 20.74 45.7 21.34C44.79 21.95 43.71 22.27 42.62 22.26C41.89 22.27 41.17 22.13 40.5 21.85C39.82 21.57 39.21 21.16 38.7 20.65C38.19 20.13 37.78 19.51 37.51 18.83C37.24 18.18 37.11 17.48 37.11 16.77C37.11 16.75 37.11 16.72 37.11 16.7ZM131.02 15.5L131.02 21.95L127.85 21.95L127.85 15.78C127.85 14.72 127.35 14.06 126.35 14.06C125.35 14.06 124.72 14.79 124.72 16.03L124.72 21.95L121.55 21.95L121.55 15.78C121.55 14.72 121.05 14.06 120.05 14.06C119.05 14.06 118.42 14.79 118.42 16.03L118.42 21.95L115.25 21.95L115.25 11.45L118.42 11.45L118.42 12.42C118.74 11.99 119.17 11.65 119.66 11.44C120.15 11.22 120.69 11.12 121.22 11.17C121.76 11.14 122.29 11.25 122.77 11.49C123.25 11.73 123.66 12.1 123.96 12.54C124.3 12.08 124.76 11.71 125.29 11.46C125.82 11.22 126.41 11.12 126.98 11.17C129.45 11.17 131.02 12.88 131.02 15.5ZM91.98 16.7C91.98 16.79 91.98 16.88 91.98 16.97C91.98 17.58 91.88 18.18 91.67 18.75C91.44 19.41 91.08 20.02 90.61 20.53C90.14 21.05 89.58 21.47 88.95 21.77C88.32 22.06 87.64 22.23 86.94 22.27C86.35 22.3 85.76 22.21 85.21 21.99C84.67 21.77 84.17 21.42 83.78 20.98L83.78 26.17L80.61 26.17L80.61 11.45L83.78 11.45L83.78 12.44C84.18 12 84.67 11.66 85.22 11.44C85.76 11.22 86.35 11.12 86.94 11.17C87.63 11.2 88.31 11.37 88.94 11.66C89.57 11.96 90.13 12.37 90.6 12.89C91.07 13.4 91.43 14 91.67 14.66C91.87 15.24 91.98 15.85 91.98 16.46C91.98 16.54 91.98 16.62 91.98 16.7ZM101.61 18.8C101.61 21.22 99.5 22.24 97.26 22.24C96.35 22.33 95.43 22.13 94.63 21.69C93.83 21.24 93.18 20.56 92.77 19.74L95.49 18.19C95.6 18.57 95.83 18.9 96.15 19.13C96.47 19.35 96.86 19.46 97.25 19.43C98 19.43 98.38 19.2 98.38 18.78C98.38 17.62 93.24 18.24 93.24 14.6C93.24 12.31 95.16 11.17 97.34 11.17C98.16 11.13 98.98 11.32 99.71 11.71C100.44 12.11 101.05 12.69 101.47 13.4L98.75 14.84C98.63 14.57 98.43 14.34 98.18 14.18C97.93 14.01 97.64 13.92 97.35 13.92C96.8 13.92 96.47 14.13 96.47 14.51C96.47 15.71 101.61 14.92 101.61 18.8ZM60.65 11.45L60.65 21.43C60.65 24.95 57.91 26.44 55.13 26.44C54.15 26.52 53.17 26.33 52.3 25.88C51.42 25.43 50.69 24.74 50.18 23.9L52.85 22.35C53.07 22.79 53.41 23.15 53.84 23.39C54.26 23.62 54.75 23.72 55.24 23.67C55.55 23.71 55.86 23.68 56.15 23.58C56.45 23.49 56.72 23.33 56.95 23.11C57.17 22.9 57.35 22.63 57.46 22.34C57.56 22.1 57.6 21.83 57.6 21.57C57.6 21.52 57.6 21.48 57.6 21.43L57.6 20.46C57.23 20.91 56.76 21.27 56.24 21.5C55.71 21.74 55.13 21.85 54.55 21.82C53.15 21.82 51.81 21.26 50.82 20.27C49.83 19.27 49.28 17.93 49.28 16.52C49.28 15.11 49.83 13.77 50.82 12.77C51.81 11.78 53.15 11.22 54.55 11.22C55.13 11.19 55.71 11.3 56.24 11.54C56.76 11.77 57.23 12.13 57.6 12.58L57.6 11.52L60.65 11.45ZM75.26 11.45L78.43 11.45L78.43 21.95L75.26 21.95L75.26 11.45ZM113.08 11.45L113.08 21.95L109.91 21.95L109.91 20.96C109.55 21.4 109.1 21.74 108.58 21.97C108.06 22.2 107.5 22.3 106.94 22.27C104.83 22.27 103.02 20.75 103.02 17.92L103.02 11.45L106.19 11.45L106.19 17.44C106.18 17.5 106.18 17.56 106.18 17.62C106.18 17.81 106.21 18 106.27 18.18C106.36 18.42 106.49 18.64 106.66 18.82C106.84 19 107.05 19.14 107.28 19.23C107.51 19.33 107.76 19.37 108.01 19.35C109.15 19.35 109.96 18.67 109.96 17.23L109.96 11.45L113.08 11.45ZM57.6 16.49C57.6 16.45 57.6 16.42 57.6 16.38C57.6 15.91 57.47 15.45 57.23 15.05C56.96 14.62 56.57 14.27 56.11 14.06C55.65 13.85 55.14 13.79 54.64 13.87C54.14 13.96 53.68 14.19 53.32 14.54C52.95 14.9 52.7 15.35 52.59 15.85C52.56 16.02 52.54 16.2 52.54 16.38C52.54 16.7 52.6 17.03 52.72 17.33C52.91 17.8 53.23 18.2 53.65 18.49C54.07 18.77 54.56 18.93 55.07 18.93C55.4 18.95 55.73 18.9 56.04 18.79C56.35 18.68 56.63 18.5 56.87 18.27C57.11 18.04 57.3 17.76 57.42 17.46C57.54 17.17 57.6 16.87 57.6 16.56C57.6 16.53 57.6 16.51 57.6 16.49ZM88.81 16.7C88.8 16.21 88.64 15.73 88.36 15.33C88.08 14.92 87.68 14.61 87.23 14.43C86.77 14.25 86.27 14.21 85.79 14.32C85.31 14.42 84.88 14.67 84.53 15.02C84.19 15.37 83.96 15.82 83.87 16.3C83.84 16.46 83.83 16.61 83.83 16.76C83.83 17.1 83.9 17.43 84.03 17.74C84.22 18.2 84.54 18.58 84.95 18.85C85.36 19.12 85.84 19.27 86.33 19.27C86.67 19.28 87 19.22 87.31 19.1C87.63 18.97 87.91 18.78 88.14 18.54C88.38 18.3 88.56 18.01 88.67 17.69C88.77 17.43 88.82 17.15 88.82 16.87C88.82 16.81 88.81 16.76 88.81 16.7ZM45.04 16.7C45.03 16.22 44.88 15.76 44.61 15.37C44.34 14.99 43.96 14.69 43.52 14.51C43.08 14.34 42.59 14.3 42.13 14.4C41.67 14.5 41.25 14.74 40.92 15.08C40.59 15.42 40.36 15.85 40.28 16.32C40.25 16.46 40.23 16.61 40.23 16.76C40.23 17.08 40.3 17.4 40.42 17.7C40.61 18.14 40.91 18.51 41.31 18.78C41.7 19.04 42.17 19.18 42.64 19.18C42.96 19.19 43.28 19.13 43.58 19C43.88 18.88 44.15 18.7 44.37 18.46C44.59 18.23 44.77 17.95 44.88 17.65C44.98 17.39 45.03 17.11 45.03 16.83C45.03 16.79 45.03 16.74 45.02 16.7L45.04 16.7ZM70.37 16.7C70.35 16.22 70.2 15.76 69.93 15.37C69.66 14.99 69.28 14.69 68.84 14.51C68.4 14.34 67.91 14.3 67.45 14.4C66.99 14.5 66.57 14.74 66.24 15.08C65.91 15.42 65.68 15.85 65.6 16.32C65.57 16.47 65.56 16.62 65.56 16.76C65.56 17.09 65.62 17.41 65.75 17.71C65.93 18.15 66.24 18.52 66.64 18.78C67.03 19.04 67.5 19.18 67.97 19.18C68.29 19.19 68.61 19.13 68.91 19C69.21 18.88 69.48 18.7 69.7 18.46C69.93 18.23 70.1 17.95 70.21 17.65C70.31 17.39 70.36 17.11 70.36 16.83C70.36 16.79 70.36 16.74 70.36 16.7L70.37 16.7Z" fill="#1D2130" fill-opacity="1.000000" fill-rule="evenodd"/>
	</g>
</svg>
