<svg width="137.000000" height="31.000000" viewBox="0 0 137 31" fill="none" xmlns="http://www.w3.org/2000/svg" xmlns:xlink="http://www.w3.org/1999/xlink">
	<desc>
			Created with Pixso.
	</desc>
	<defs/>
	<g opacity="0.600000">
		<path id="Logo" d="M13.79 -0.63L13.79 3.87C10.89 3.87 8.11 5.03 6.07 7.09C4.02 9.14 2.87 11.94 2.87 14.84C2.87 17.75 4.02 20.54 6.07 22.6C8.11 24.66 10.89 25.82 13.79 25.82L13.79 30.32L-0.35 30.32L-0.35 -0.63L13.79 -0.63ZM13.79 25.82L13.79 3.87C16.68 3.87 19.46 5.03 21.51 7.09C23.56 9.14 24.71 11.94 24.71 14.84C24.71 17.75 23.56 20.54 21.51 22.6C19.46 24.66 16.68 25.82 13.79 25.82ZM32.64 6.63L35.81 6.63L35.81 21.95L32.64 21.95L32.64 6.63ZM134.14 11.39C132.86 11.39 131.82 10.35 131.82 9.06C131.82 7.77 132.86 6.73 134.14 6.73C135.43 6.73 136.47 7.77 136.47 9.06C136.47 10.35 135.43 11.39 134.14 11.39ZM75.43 8.64C75.43 8.27 75.54 7.91 75.74 7.6C75.95 7.29 76.24 7.04 76.59 6.9C76.93 6.76 77.31 6.72 77.67 6.79C78.04 6.87 78.37 7.05 78.63 7.31C78.9 7.57 79.08 7.91 79.15 8.28C79.17 8.4 79.18 8.52 79.18 8.64C79.18 8.89 79.14 9.14 79.04 9.37C78.9 9.71 78.66 10.01 78.35 10.21C78.04 10.42 77.68 10.53 77.31 10.53C76.81 10.53 76.34 10.33 75.98 9.97C75.63 9.62 75.43 9.14 75.43 8.64ZM62.9 16.7C62.9 15.6 63.23 14.52 63.84 13.61C64.45 12.69 65.31 11.98 66.33 11.56C67.34 11.14 68.45 11.03 69.53 11.24C70.6 11.46 71.59 11.99 72.36 12.77C73.14 13.55 73.67 14.54 73.88 15.62C73.95 15.98 73.98 16.34 73.98 16.7C73.98 17.43 73.84 18.16 73.56 18.84C73.14 19.85 72.43 20.72 71.51 21.33C70.6 21.94 69.53 22.27 68.43 22.26C67.7 22.27 66.98 22.13 66.31 21.86C65.63 21.58 65.02 21.17 64.5 20.65C63.99 20.13 63.58 19.52 63.31 18.84C63.04 18.18 62.9 17.47 62.9 16.76C62.9 16.74 62.9 16.72 62.9 16.7ZM37.58 16.7C37.58 15.6 37.91 14.52 38.52 13.61C39.13 12.69 39.99 11.98 41.01 11.56C42.02 11.14 43.14 11.03 44.21 11.24C45.29 11.46 46.28 12 47.05 12.78C47.82 13.56 48.35 14.55 48.56 15.63C48.63 15.99 48.66 16.34 48.66 16.7C48.66 17.44 48.52 18.17 48.23 18.85C47.81 19.87 47.09 20.74 46.18 21.34C45.26 21.95 44.19 22.27 43.09 22.26C42.36 22.27 41.64 22.13 40.97 21.85C40.29 21.57 39.68 21.16 39.17 20.65C38.66 20.13 38.25 19.51 37.98 18.83C37.72 18.18 37.58 17.48 37.58 16.77C37.58 16.75 37.58 16.72 37.58 16.7ZM131.49 15.5L131.49 21.95L128.32 21.95L128.32 15.78C128.32 14.72 127.83 14.06 126.82 14.06C125.82 14.06 125.19 14.79 125.19 16.03L125.19 21.95L122.02 21.95L122.02 15.78C122.02 14.72 121.53 14.06 120.52 14.06C119.52 14.06 118.89 14.79 118.89 16.03L118.89 21.95L115.72 21.95L115.72 11.45L118.89 11.45L118.89 12.42C119.22 11.99 119.64 11.65 120.13 11.44C120.62 11.22 121.16 11.12 121.7 11.17C122.23 11.14 122.76 11.25 123.24 11.49C123.72 11.73 124.13 12.1 124.43 12.54C124.78 12.08 125.24 11.71 125.77 11.46C126.3 11.22 126.88 11.12 127.46 11.17C129.92 11.17 131.49 12.88 131.49 15.5ZM92.45 16.7C92.45 16.79 92.45 16.88 92.45 16.97C92.45 17.58 92.35 18.18 92.15 18.75C91.91 19.41 91.55 20.02 91.08 20.53C90.62 21.05 90.05 21.47 89.42 21.77C88.79 22.06 88.11 22.23 87.41 22.27C86.82 22.3 86.23 22.21 85.69 21.99C85.14 21.77 84.65 21.42 84.25 20.98L84.25 26.17L81.08 26.17L81.08 11.45L84.25 11.45L84.25 12.44C84.65 12 85.14 11.66 85.69 11.44C86.23 11.22 86.83 11.12 87.41 11.17C88.11 11.2 88.79 11.37 89.41 11.66C90.04 11.96 90.6 12.37 91.07 12.89C91.54 13.4 91.9 14 92.14 14.66C92.35 15.24 92.45 15.85 92.45 16.46C92.45 16.54 92.45 16.62 92.45 16.7ZM102.08 18.8C102.08 21.22 99.97 22.24 97.73 22.24C96.82 22.33 95.91 22.13 95.1 21.69C94.3 21.24 93.65 20.56 93.24 19.74L95.96 18.19C96.07 18.57 96.3 18.9 96.62 19.13C96.94 19.35 97.33 19.46 97.72 19.43C98.47 19.43 98.85 19.2 98.85 18.78C98.85 17.62 93.71 18.24 93.71 14.6C93.71 12.31 95.63 11.17 97.81 11.17C98.63 11.13 99.45 11.32 100.18 11.71C100.91 12.11 101.52 12.69 101.94 13.4L99.22 14.84C99.1 14.57 98.9 14.34 98.66 14.18C98.41 14.01 98.12 13.92 97.82 13.92C97.27 13.92 96.94 14.13 96.94 14.51C96.94 15.71 102.08 14.92 102.08 18.8ZM61.12 11.45L61.12 21.43C61.12 24.95 58.38 26.44 55.6 26.44C54.62 26.52 53.64 26.33 52.77 25.88C51.89 25.43 51.16 24.74 50.65 23.9L53.32 22.35C53.54 22.79 53.88 23.15 54.31 23.39C54.74 23.62 55.22 23.72 55.71 23.67C56.02 23.71 56.33 23.68 56.63 23.58C56.92 23.49 57.19 23.33 57.42 23.11C57.64 22.9 57.82 22.63 57.93 22.34C58.03 22.1 58.08 21.83 58.08 21.57C58.08 21.52 58.07 21.48 58.07 21.43L58.07 20.46C57.7 20.91 57.24 21.27 56.71 21.5C56.18 21.74 55.6 21.85 55.02 21.82C53.62 21.82 52.28 21.26 51.29 20.27C50.3 19.27 49.75 17.93 49.75 16.52C49.75 15.11 50.3 13.77 51.29 12.77C52.28 11.78 53.62 11.22 55.02 11.22C55.6 11.19 56.18 11.3 56.71 11.54C57.24 11.77 57.7 12.13 58.07 12.58L58.07 11.52L61.12 11.45ZM75.73 11.45L78.9 11.45L78.9 21.95L75.73 21.95L75.73 11.45ZM113.55 11.45L113.55 21.95L110.38 21.95L110.38 20.96C110.03 21.4 109.57 21.74 109.05 21.97C108.53 22.2 107.97 22.3 107.41 22.27C105.3 22.27 103.49 20.75 103.49 17.92L103.49 11.45L106.66 11.45L106.66 17.44C106.65 17.5 106.65 17.56 106.65 17.62C106.65 17.81 106.68 18 106.75 18.18C106.83 18.42 106.96 18.64 107.13 18.82C107.31 19 107.52 19.14 107.75 19.23C107.99 19.33 108.24 19.37 108.49 19.35C109.62 19.35 110.43 18.67 110.43 17.23L110.43 11.45L113.55 11.45ZM58.07 16.49C58.07 16.45 58.07 16.42 58.07 16.38C58.07 15.91 57.94 15.45 57.7 15.05C57.43 14.62 57.04 14.27 56.58 14.06C56.12 13.85 55.61 13.79 55.11 13.87C54.62 13.96 54.15 14.19 53.79 14.54C53.42 14.9 53.17 15.35 53.07 15.85C53.03 16.02 53.01 16.2 53.01 16.38C53.01 16.7 53.07 17.03 53.19 17.33C53.38 17.8 53.7 18.2 54.12 18.49C54.54 18.77 55.03 18.93 55.54 18.93C55.87 18.95 56.2 18.9 56.51 18.79C56.82 18.68 57.11 18.5 57.34 18.27C57.58 18.04 57.77 17.76 57.9 17.46C58.01 17.17 58.07 16.87 58.07 16.56C58.07 16.53 58.07 16.51 58.07 16.49ZM89.28 16.7C89.27 16.21 89.11 15.73 88.83 15.33C88.55 14.92 88.16 14.61 87.7 14.43C87.24 14.25 86.74 14.21 86.26 14.32C85.79 14.42 85.35 14.67 85.01 15.02C84.66 15.37 84.43 15.82 84.34 16.3C84.32 16.46 84.3 16.61 84.3 16.76C84.3 17.1 84.37 17.43 84.5 17.74C84.69 18.2 85.01 18.58 85.42 18.85C85.83 19.12 86.31 19.27 86.8 19.27C87.14 19.28 87.47 19.22 87.79 19.1C88.1 18.97 88.38 18.78 88.61 18.54C88.85 18.3 89.03 18.01 89.14 17.69C89.24 17.43 89.29 17.15 89.29 16.87C89.29 16.81 89.29 16.76 89.28 16.7ZM45.52 16.7C45.5 16.22 45.35 15.76 45.08 15.37C44.81 14.99 44.43 14.69 43.99 14.51C43.55 14.34 43.07 14.3 42.6 14.4C42.14 14.5 41.72 14.74 41.39 15.08C41.06 15.42 40.84 15.85 40.75 16.32C40.72 16.46 40.71 16.61 40.71 16.76C40.71 17.08 40.77 17.4 40.89 17.7C41.08 18.14 41.39 18.51 41.78 18.78C42.17 19.04 42.64 19.18 43.11 19.18C43.43 19.19 43.75 19.13 44.05 19C44.35 18.88 44.62 18.7 44.84 18.46C45.06 18.23 45.24 17.95 45.35 17.65C45.45 17.39 45.5 17.11 45.5 16.83C45.5 16.79 45.5 16.74 45.49 16.7L45.52 16.7ZM70.84 16.7C70.83 16.22 70.67 15.76 70.4 15.37C70.13 14.99 69.75 14.69 69.31 14.51C68.87 14.34 68.38 14.3 67.92 14.4C67.46 14.5 67.04 14.74 66.71 15.08C66.38 15.42 66.16 15.85 66.07 16.32C66.04 16.47 66.03 16.62 66.03 16.76C66.03 17.09 66.09 17.41 66.22 17.71C66.41 18.15 66.72 18.52 67.11 18.78C67.51 19.04 67.97 19.18 68.44 19.18C68.77 19.19 69.09 19.13 69.38 19C69.68 18.88 69.95 18.7 70.17 18.46C70.4 18.23 70.57 17.95 70.68 17.65C70.78 17.39 70.83 17.11 70.83 16.83C70.83 16.79 70.83 16.74 70.83 16.7L70.84 16.7Z" fill="#1D2130" fill-opacity="1.000000" fill-rule="evenodd"/>
	</g>
</svg>
